<svg id="svg" version="1.1" xmlns="http://www.w3.org/2000/svg" xmlns:xlink="http://www.w3.org/1999/xlink" width="400" height="400" viewBox="0, 0, 400,400"><g id="svgg"><path id="path0" d="M231.200 141.666 C 231.200 141.850,229.220 142.000,226.800 142.000 C 224.133 142.000,222.400 142.158,222.400 142.400 C 222.400 142.620,221.669 142.800,220.776 142.800 C 219.883 142.800,219.249 142.956,219.367 143.146 C 219.484 143.336,218.635 143.603,217.480 143.739 C 216.325 143.875,214.574 144.377,213.590 144.856 C 212.605 145.334,211.575 145.727,211.300 145.729 C 211.025 145.732,210.800 145.883,210.800 146.067 C 210.800 146.250,210.632 146.400,210.426 146.400 C 210.220 146.400,209.635 146.558,209.126 146.752 C 208.617 146.946,208.040 147.110,207.845 147.118 C 207.649 147.125,207.379 147.286,207.245 147.474 C 207.110 147.662,206.550 148.046,206.000 148.327 C 203.436 149.638,201.677 150.689,200.359 151.700 C 199.570 152.305,198.813 152.800,198.676 152.800 C 197.979 152.800,189.284 161.330,187.892 163.379 C 187.362 164.158,186.839 164.706,186.729 164.595 C 186.619 164.485,186.094 165.251,185.564 166.298 C 185.034 167.344,184.185 168.672,183.679 169.250 C 182.655 170.416,180.314 174.964,180.111 176.183 C 180.039 176.613,179.849 177.063,179.689 177.183 C 178.950 177.736,177.719 181.198,177.372 183.700 C 177.228 184.745,176.950 185.600,176.755 185.600 C 176.560 185.600,176.400 186.601,176.400 187.824 C 176.400 189.240,176.251 189.955,175.990 189.794 C 175.765 189.655,175.606 189.689,175.637 189.870 C 175.900 191.380,175.530 196.404,175.173 196.183 C 174.875 195.999,174.808 197.118,174.953 199.859 C 175.239 205.280,175.616 208.400,175.985 208.400 C 176.156 208.400,176.425 209.075,176.583 209.900 C 177.638 215.412,177.625 216.000,176.446 216.000 C 176.078 216.000,175.524 216.350,175.215 216.779 C 174.907 217.207,174.507 217.466,174.327 217.355 C 174.147 217.244,174.000 217.330,174.000 217.548 C 174.000 218.067,166.473 225.600,165.954 225.600 C 165.733 225.600,165.644 225.747,165.755 225.927 C 165.866 226.107,165.607 226.507,165.179 226.815 C 164.059 227.623,164.080 227.660,167.654 231.230 L 170.909 234.480 166.654 238.704 C 164.314 241.027,162.400 243.079,162.400 243.264 C 162.400 243.449,162.142 243.600,161.827 243.600 C 161.512 243.600,161.140 243.960,161.000 244.400 C 160.860 244.840,160.613 245.200,160.450 245.200 C 160.011 245.200,150.000 255.188,150.000 255.625 C 150.000 255.831,149.822 256.000,149.603 256.000 C 149.128 256.000,146.800 258.374,146.800 258.859 C 146.800 259.047,146.639 259.200,146.441 259.200 C 145.871 259.200,143.600 261.328,143.600 261.862 C 143.600 262.128,143.269 262.451,142.864 262.580 C 142.459 262.708,141.889 263.260,141.597 263.806 C 141.305 264.352,141.011 264.745,140.945 264.678 C 140.878 264.612,138.704 266.690,136.112 269.296 C 133.520 271.903,130.877 274.522,130.237 275.118 C 129.598 275.713,128.338 276.974,127.437 277.920 C 126.537 278.866,125.396 280.036,124.902 280.520 C 119.690 285.625,116.176 289.200,116.367 289.203 C 116.495 289.204,116.104 289.533,115.497 289.933 C 114.890 290.333,114.485 290.751,114.596 290.863 C 114.708 290.974,114.352 291.305,113.806 291.597 C 113.260 291.889,112.708 292.459,112.580 292.864 C 112.451 293.269,112.098 293.600,111.796 293.600 C 111.493 293.600,110.965 294.000,110.623 294.489 C 109.762 295.717,109.683 309.696,110.539 309.368 C 110.835 309.255,126.090 294.131,144.439 275.760 C 162.787 257.388,178.139 242.168,178.554 241.936 C 179.683 241.304,185.896 247.513,185.268 248.646 C 185.038 249.061,168.219 266.013,147.892 286.318 C 127.565 306.622,110.933 323.452,110.933 323.718 C 110.932 324.080,112.655 324.171,117.866 324.082 C 123.039 323.994,124.800 323.839,124.800 323.470 C 124.800 323.198,128.731 319.059,133.536 314.272 C 138.342 309.485,142.138 305.486,141.974 305.384 C 141.810 305.282,141.547 304.254,141.390 303.100 C 141.233 301.945,140.766 300.332,140.352 299.516 C 139.500 297.834,139.410 297.200,140.024 297.200 C 140.257 297.200,140.336 297.380,140.200 297.600 C 140.053 297.838,140.529 298.000,141.376 298.000 C 142.159 298.000,142.800 298.180,142.800 298.400 C 142.800 298.620,143.124 298.800,143.520 298.800 C 143.916 298.800,144.411 298.955,144.620 299.145 C 145.323 299.783,148.400 300.363,148.402 299.857 C 148.402 299.606,158.391 289.413,170.598 277.206 L 192.792 255.013 195.839 258.006 C 197.515 259.653,199.134 261.574,199.438 262.275 C 200.226 264.096,205.366 269.200,206.411 269.200 C 207.289 269.200,209.600 267.193,209.600 266.431 C 209.600 266.194,209.858 266.000,210.173 266.000 C 210.488 266.000,210.859 265.644,210.997 265.208 C 211.136 264.773,211.400 264.458,211.584 264.508 C 211.769 264.559,211.925 264.429,211.930 264.220 C 211.936 264.011,212.297 263.708,212.733 263.547 C 213.168 263.385,213.639 262.734,213.778 262.098 C 213.923 261.441,215.042 259.944,216.377 258.622 L 218.723 256.302 220.661 256.732 C 253.099 263.929,284.264 243.538,290.775 210.857 C 291.229 208.578,291.600 205.754,291.600 204.580 C 291.600 203.407,291.780 202.336,292.000 202.200 C 292.496 201.893,292.540 192.215,292.049 191.274 C 291.856 190.903,291.590 189.700,291.459 188.600 C 291.160 186.090,291.040 185.501,290.728 185.000 C 290.591 184.780,290.374 183.970,290.245 183.200 C 290.034 181.940,289.707 180.797,288.957 178.700 C 288.819 178.315,288.580 178.000,288.426 178.000 C 288.271 178.000,287.902 177.108,287.605 176.018 C 287.308 174.928,286.916 174.129,286.733 174.242 C 286.550 174.355,286.400 174.077,286.400 173.624 C 286.400 173.171,286.220 172.800,286.000 172.800 C 285.780 172.800,285.600 172.522,285.600 172.183 C 285.600 171.844,285.240 171.180,284.800 170.708 C 284.360 170.236,284.000 169.523,284.000 169.125 C 284.000 168.726,283.820 168.400,283.600 168.400 C 283.380 168.400,283.200 168.140,283.200 167.823 C 283.200 167.505,282.875 167.010,282.477 166.723 C 282.079 166.435,281.147 165.300,280.405 164.200 C 279.664 163.100,278.549 161.769,277.929 161.242 C 277.308 160.715,276.800 160.040,276.800 159.742 C 276.800 159.444,276.599 159.200,276.353 159.200 C 276.108 159.200,275.229 158.480,274.400 157.600 C 273.571 156.720,272.662 156.000,272.380 156.000 C 272.098 156.000,271.978 155.889,272.114 155.752 C 272.364 155.502,271.466 154.400,271.012 154.400 C 270.756 154.400,270.683 154.347,268.400 152.488 C 266.714 151.116,262.943 148.800,262.394 148.800 C 262.177 148.800,262.000 148.620,262.000 148.400 C 262.000 148.180,261.662 148.000,261.249 148.000 C 260.836 148.000,260.276 147.732,260.004 147.404 C 259.732 147.077,259.350 146.907,259.155 147.028 C 258.960 147.149,258.800 147.057,258.800 146.824 C 258.800 146.591,258.564 146.400,258.275 146.400 C 257.986 146.400,256.771 145.924,255.575 145.343 C 254.379 144.762,252.185 144.092,250.700 143.855 C 249.215 143.617,248.000 143.283,248.000 143.111 C 248.000 142.940,247.471 142.800,246.824 142.800 C 246.177 142.800,245.550 142.642,245.431 142.449 C 245.311 142.257,243.373 142.067,241.123 142.028 C 238.872 141.990,236.814 141.777,236.548 141.557 C 235.976 141.082,231.200 141.180,231.200 141.666 M251.948 167.781 C 259.039 169.669,264.405 174.975,266.203 181.877 C 267.064 185.182,266.987 187.813,266.000 188.800 C 265.099 189.701,264.947 190.190,265.700 189.765 C 266.100 189.539,266.100 189.590,265.700 190.021 C 265.425 190.318,265.200 191.064,265.200 191.680 C 265.200 192.296,265.020 192.800,264.800 192.800 C 264.580 192.800,264.400 193.064,264.400 193.386 C 264.400 194.887,259.921 200.525,257.900 201.568 C 257.295 201.880,256.800 202.285,256.800 202.468 C 256.800 202.650,256.440 202.800,256.000 202.800 C 255.560 202.800,255.200 202.980,255.200 203.200 C 255.200 203.420,254.761 203.600,254.224 203.600 C 253.687 203.600,253.136 203.780,253.000 204.000 C 252.864 204.220,252.213 204.400,251.553 204.400 C 250.855 204.400,250.456 204.567,250.600 204.800 C 250.756 205.053,249.745 205.200,247.847 205.200 C 246.197 205.200,244.736 205.020,244.600 204.800 C 244.464 204.580,243.733 204.400,242.976 204.400 C 242.219 204.400,241.600 204.220,241.600 204.000 C 241.600 203.780,241.184 203.600,240.675 203.600 C 240.167 203.600,239.364 203.240,238.892 202.800 C 238.420 202.360,237.846 202.000,237.617 202.000 C 237.388 202.000,237.200 201.820,237.200 201.600 C 237.200 201.380,236.975 201.195,236.700 201.189 C 236.187 201.178,233.200 198.582,233.200 198.147 C 233.200 198.014,232.660 197.291,232.000 196.539 C 231.340 195.787,230.800 194.929,230.800 194.632 C 230.800 194.335,230.539 193.589,230.220 192.974 C 229.902 192.360,229.751 191.664,229.885 191.429 C 230.019 191.193,229.976 191.139,229.790 191.308 C 228.985 192.039,227.892 188.297,228.126 185.614 C 229.200 173.311,240.615 164.765,251.948 167.781 " stroke="none" fill="#f4c30c" fill-rule="evenodd"></path><path id="path1" d="M242.751 167.781 C 234.523 170.050,228.859 176.957,228.138 185.600 C 227.891 188.556,228.430 190.517,229.387 190.150 C 229.724 190.020,230.000 189.494,230.000 188.981 C 230.000 188.467,230.180 187.936,230.400 187.800 C 230.620 187.664,230.800 187.113,230.800 186.576 C 230.800 186.039,230.980 185.600,231.200 185.600 C 231.420 185.600,231.600 185.375,231.600 185.100 C 231.601 184.328,235.940 179.229,236.612 179.211 C 236.838 179.205,237.283 178.840,237.600 178.400 C 237.917 177.960,238.401 177.600,238.676 177.600 C 238.951 177.600,239.817 177.240,240.600 176.800 C 241.383 176.360,242.289 176.000,242.612 176.000 C 242.935 176.000,243.200 175.820,243.200 175.600 C 243.200 175.358,244.933 175.200,247.600 175.200 C 250.267 175.200,252.000 175.358,252.000 175.600 C 252.000 175.820,252.495 176.004,253.100 176.009 C 253.705 176.014,254.650 176.370,255.200 176.800 C 255.750 177.230,256.433 177.586,256.718 177.591 C 257.003 177.596,257.690 178.053,258.244 178.608 C 258.798 179.162,259.420 179.511,259.626 179.384 C 259.832 179.257,260.000 179.316,260.000 179.515 C 260.000 179.715,260.315 180.248,260.700 180.701 C 261.085 181.155,261.670 181.924,262.000 182.412 C 262.330 182.899,262.780 183.508,263.000 183.764 C 263.708 184.590,264.400 185.973,264.400 186.561 C 264.400 186.876,264.588 187.196,264.818 187.273 C 265.048 187.349,265.266 187.814,265.303 188.306 C 265.472 190.553,266.800 188.428,266.800 185.910 C 266.800 174.246,254.081 164.658,242.751 167.781 M291.848 202.286 C 291.711 202.422,291.600 203.474,291.600 204.623 C 291.600 215.853,284.325 231.624,274.732 241.190 C 260.356 255.526,240.986 260.959,219.800 256.599 C 218.729 256.378,218.357 256.602,216.342 258.676 C 213.610 261.488,213.047 262.800,214.573 262.800 C 215.138 262.800,215.600 262.980,215.600 263.200 C 215.600 263.420,216.050 263.600,216.600 263.600 C 217.150 263.600,217.600 263.780,217.600 264.000 C 217.600 264.220,218.129 264.400,218.776 264.400 C 219.423 264.400,220.047 264.553,220.163 264.740 C 220.278 264.927,221.504 265.113,222.886 265.153 C 224.269 265.194,225.460 265.401,225.533 265.614 C 225.717 266.146,242.000 266.133,242.000 265.600 C 242.000 265.380,243.022 265.200,244.272 265.200 C 246.389 265.200,248.271 264.796,250.207 263.927 C 250.651 263.727,251.416 263.534,251.907 263.497 C 252.398 263.460,252.800 263.288,252.800 263.115 C 252.800 262.942,253.245 262.800,253.788 262.800 C 254.331 262.800,255.417 262.440,256.200 262.000 C 256.983 261.560,257.889 261.200,258.212 261.200 C 258.535 261.200,258.800 261.020,258.800 260.800 C 258.800 260.580,259.160 260.400,259.600 260.400 C 260.040 260.400,260.400 260.220,260.400 260.000 C 260.400 259.780,260.760 259.600,261.200 259.600 C 261.640 259.600,262.000 259.420,262.000 259.200 C 262.000 258.980,262.272 258.800,262.605 258.800 C 263.356 258.800,264.794 258.010,265.596 257.157 C 265.928 256.804,266.650 256.373,267.200 256.200 C 267.750 256.027,268.435 255.551,268.723 255.143 C 269.010 254.734,269.413 254.400,269.618 254.400 C 270.142 254.400,271.322 253.387,274.151 250.510 C 279.718 244.848,281.600 242.773,281.600 242.296 C 281.600 242.019,281.960 241.568,282.400 241.293 C 282.840 241.018,283.200 240.602,283.200 240.369 C 283.200 240.135,283.740 239.159,284.400 238.200 C 285.060 237.241,285.600 236.263,285.600 236.028 C 285.600 235.793,285.780 235.600,286.000 235.600 C 286.220 235.600,286.400 235.322,286.400 234.983 C 286.400 234.644,286.760 233.980,287.200 233.508 C 287.640 233.036,288.000 232.359,288.000 232.004 C 288.000 231.170,288.911 229.207,289.300 229.203 C 289.465 229.201,289.600 228.660,289.600 228.000 C 289.600 227.340,289.780 226.800,290.000 226.800 C 290.220 226.800,290.400 226.372,290.400 225.849 C 290.400 225.326,290.670 224.251,291.000 223.462 C 291.330 222.672,291.600 221.401,291.600 220.636 C 291.600 219.872,291.780 219.136,292.000 219.000 C 292.220 218.864,292.400 217.233,292.400 215.376 C 292.400 213.519,292.560 212.000,292.756 212.000 C 293.395 212.000,293.309 203.252,292.664 202.607 C 292.351 202.294,291.984 202.150,291.848 202.286 M175.600 212.200 C 175.600 215.662,175.667 216.000,176.357 216.000 C 177.633 216.000,177.652 215.486,176.583 209.900 C 176.069 207.217,175.600 208.314,175.600 212.200 M144.846 275.382 C 126.268 293.963,110.828 309.257,110.534 309.370 C 109.673 309.700,109.761 324.000,110.624 324.000 C 110.967 324.000,111.155 323.850,111.041 323.667 C 110.928 323.483,127.489 306.698,147.843 286.367 C 168.197 266.035,185.037 249.062,185.266 248.650 C 185.680 247.903,180.098 241.600,179.022 241.600 C 178.803 241.600,163.424 256.802,144.846 275.382 M170.500 277.307 C 149.553 298.262,147.562 300.400,149.000 300.400 C 149.330 300.400,149.600 300.580,149.600 300.800 C 149.600 301.020,149.949 301.200,150.376 301.200 C 150.803 301.200,151.264 301.380,151.400 301.600 C 151.536 301.820,152.166 302.000,152.800 302.000 C 153.434 302.000,154.064 302.180,154.200 302.400 C 154.336 302.620,154.977 302.800,155.624 302.800 C 156.271 302.800,156.800 302.980,156.800 303.200 C 156.800 304.765,159.374 303.438,162.606 300.206 L 166.000 296.811 166.000 290.006 L 166.000 283.200 172.426 283.200 C 180.330 283.200,178.669 284.176,189.884 272.946 C 195.017 267.806,199.389 263.600,199.599 263.600 C 200.537 263.600,198.923 261.163,196.088 258.300 C 194.400 256.595,192.924 255.200,192.809 255.200 C 192.694 255.200,182.655 265.148,170.500 277.307 M133.349 314.500 C 122.635 325.286,122.844 324.400,131.013 324.400 C 134.636 324.400,137.600 324.258,137.600 324.085 C 137.600 323.912,138.002 323.740,138.493 323.703 C 140.169 323.577,145.600 317.296,145.600 315.485 C 145.600 314.565,145.440 314.052,145.200 314.200 C 144.980 314.336,144.800 314.082,144.800 313.636 C 144.800 313.189,144.440 312.183,144.000 311.400 C 143.560 310.617,143.194 309.396,143.187 308.688 C 143.176 307.580,142.450 306.000,141.952 306.000 C 141.865 306.000,137.993 309.825,133.349 314.500 " stroke="none" fill="#f49c13" fill-rule="evenodd"></path><path id="path2" d="M184.800 5.600 C 184.800 5.841,183.133 6.000,180.600 6.000 C 178.067 6.000,176.400 6.159,176.400 6.400 C 176.400 6.629,175.200 6.800,173.600 6.800 C 172.000 6.800,170.800 6.971,170.800 7.200 C 170.800 7.420,169.900 7.600,168.800 7.600 C 167.700 7.600,166.800 7.780,166.800 8.000 C 166.800 8.220,165.821 8.400,164.624 8.400 C 163.427 8.400,162.336 8.580,162.200 8.800 C 162.064 9.020,161.333 9.200,160.576 9.200 C 159.819 9.200,159.200 9.361,159.200 9.558 C 159.200 9.755,157.760 10.044,156.000 10.200 C 154.240 10.356,152.800 10.645,152.800 10.842 C 152.800 11.039,152.181 11.200,151.424 11.200 C 150.667 11.200,149.936 11.380,149.800 11.600 C 149.664 11.820,149.124 12.000,148.600 12.000 C 148.076 12.000,147.536 12.180,147.400 12.400 C 147.264 12.620,146.544 12.800,145.800 12.800 C 145.056 12.800,144.336 12.980,144.200 13.200 C 144.064 13.420,143.333 13.600,142.576 13.600 C 141.819 13.600,141.200 13.780,141.200 14.000 C 141.200 14.220,140.660 14.400,140.000 14.400 C 139.340 14.400,138.800 14.580,138.800 14.800 C 138.800 15.020,138.260 15.200,137.600 15.200 C 136.940 15.200,136.400 15.380,136.400 15.600 C 136.400 15.820,135.860 16.000,135.200 16.000 C 134.540 16.000,134.000 16.180,134.000 16.400 C 134.000 16.620,133.460 16.800,132.800 16.800 C 132.140 16.800,131.600 16.980,131.600 17.200 C 131.600 17.420,131.060 17.600,130.400 17.600 C 129.740 17.600,129.200 17.780,129.200 18.000 C 129.200 18.220,128.750 18.400,128.200 18.400 C 127.650 18.400,127.200 18.580,127.200 18.800 C 127.200 19.020,126.840 19.200,126.400 19.200 C 125.960 19.200,125.600 19.380,125.600 19.600 C 125.600 19.820,125.060 20.000,124.400 20.000 C 123.740 20.000,123.200 20.180,123.200 20.400 C 123.200 20.620,122.660 20.800,122.000 20.800 C 121.340 20.800,120.800 20.980,120.800 21.200 C 120.800 21.420,120.524 21.600,120.187 21.600 C 118.710 21.600,116.000 25.192,116.000 27.150 C 116.000 27.812,115.820 28.464,115.600 28.600 C 115.380 28.736,115.200 29.287,115.200 29.824 C 115.200 30.361,115.380 30.800,115.600 30.800 C 115.820 30.800,116.000 31.520,116.000 32.400 C 116.000 33.280,116.180 34.000,116.400 34.000 C 116.620 34.000,116.800 34.349,116.800 34.776 C 116.800 35.203,116.980 35.664,117.200 35.800 C 117.420 35.936,117.600 36.487,117.600 37.024 C 117.600 37.561,117.780 38.000,118.000 38.000 C 118.220 38.000,118.400 38.360,118.400 38.800 C 118.400 39.240,118.546 39.600,118.725 39.600 C 118.904 39.600,119.298 40.230,119.600 41.000 C 119.902 41.770,120.296 42.400,120.475 42.400 C 120.654 42.400,120.800 42.760,120.800 43.200 C 120.800 43.640,120.980 44.000,121.200 44.000 C 121.420 44.000,121.600 44.360,121.600 44.800 C 121.600 45.240,121.780 45.600,122.000 45.600 C 122.220 45.600,122.400 46.039,122.400 46.576 C 122.400 47.113,122.580 47.664,122.800 47.800 C 123.020 47.936,123.200 48.314,123.200 48.640 C 123.200 48.967,123.560 49.620,124.000 50.092 C 124.440 50.564,124.800 51.367,124.800 51.875 C 124.800 52.384,124.980 52.800,125.200 52.800 C 125.420 52.800,125.600 53.160,125.600 53.600 C 125.600 54.040,125.780 54.400,126.000 54.400 C 126.220 54.400,126.400 54.760,126.400 55.200 C 126.400 55.640,126.560 56.000,126.755 56.000 C 126.951 56.000,127.229 56.630,127.374 57.400 C 127.518 58.170,127.808 58.800,128.018 58.800 C 128.228 58.800,128.400 59.160,128.400 59.600 C 128.400 60.040,128.580 60.400,128.800 60.400 C 129.020 60.400,129.200 60.760,129.200 61.200 C 129.200 61.640,129.380 62.000,129.600 62.000 C 129.820 62.000,130.000 62.360,130.000 62.800 C 130.000 63.240,130.180 63.600,130.400 63.600 C 130.620 63.600,130.800 63.960,130.800 64.400 C 130.800 64.840,130.980 65.200,131.200 65.200 C 131.420 65.200,131.600 65.639,131.600 66.176 C 131.600 66.713,131.780 67.264,132.000 67.400 C 132.220 67.536,132.400 67.997,132.400 68.424 C 132.400 68.851,132.580 69.200,132.800 69.200 C 133.020 69.200,133.200 69.560,133.200 70.000 C 133.200 70.440,133.380 70.800,133.600 70.800 C 133.820 70.800,134.000 71.160,134.000 71.600 C 134.000 72.040,134.146 72.400,134.325 72.400 C 134.504 72.400,134.898 73.030,135.200 73.800 C 135.502 74.570,135.896 75.200,136.075 75.200 C 136.254 75.200,136.400 75.560,136.400 76.000 C 136.400 76.440,136.580 76.800,136.800 76.800 C 137.020 76.800,137.200 77.160,137.200 77.600 C 137.200 78.040,137.380 78.400,137.600 78.400 C 137.820 78.400,138.000 78.900,138.000 79.512 C 138.000 80.165,138.330 80.861,138.800 81.200 C 139.240 81.517,139.600 82.013,139.600 82.302 C 139.600 83.125,142.138 85.455,144.031 86.369 C 145.847 87.247,150.400 87.555,150.400 86.800 C 150.400 86.580,150.940 86.400,151.600 86.400 C 152.260 86.400,152.800 86.220,152.800 86.000 C 152.800 85.780,153.340 85.600,154.000 85.600 C 154.660 85.600,155.200 85.420,155.200 85.200 C 155.200 84.980,155.639 84.800,156.176 84.800 C 156.713 84.800,157.264 84.620,157.400 84.400 C 157.536 84.180,158.087 84.000,158.624 84.000 C 159.161 84.000,159.600 83.820,159.600 83.600 C 159.600 83.380,160.140 83.200,160.800 83.200 C 161.460 83.200,162.000 83.020,162.000 82.800 C 162.000 82.580,162.540 82.400,163.200 82.400 C 163.860 82.400,164.400 82.220,164.400 82.000 C 164.400 81.780,164.940 81.600,165.600 81.600 C 166.260 81.600,166.800 81.420,166.800 81.200 C 166.800 80.980,167.599 80.800,168.576 80.800 C 169.553 80.800,170.464 80.620,170.600 80.400 C 170.736 80.180,171.467 80.000,172.224 80.000 C 172.981 80.000,173.600 79.820,173.600 79.600 C 173.600 79.380,174.320 79.200,175.200 79.200 C 176.080 79.200,176.800 79.020,176.800 78.800 C 176.800 78.578,177.867 78.400,179.200 78.400 C 180.533 78.400,181.600 78.222,181.600 78.000 C 181.600 77.767,182.925 77.600,184.776 77.600 C 186.523 77.600,188.064 77.420,188.200 77.200 C 188.353 76.952,191.937 76.800,197.624 76.800 C 203.475 76.800,206.800 76.945,206.800 77.200 C 206.800 77.441,208.467 77.600,211.000 77.600 C 213.533 77.600,215.200 77.759,215.200 78.000 C 215.200 78.229,216.400 78.400,218.000 78.400 C 219.600 78.400,220.800 78.571,220.800 78.800 C 220.800 79.041,222.467 79.200,225.000 79.200 C 227.533 79.200,229.200 79.041,229.200 78.800 C 229.200 78.580,229.475 78.400,229.811 78.400 C 231.306 78.400,234.800 73.923,234.800 72.005 C 234.800 71.342,234.980 70.800,235.200 70.800 C 235.420 70.800,235.600 70.260,235.600 69.600 C 235.600 68.940,235.780 68.400,236.000 68.400 C 236.220 68.400,236.400 67.871,236.400 67.224 C 236.400 66.577,236.580 65.936,236.800 65.800 C 237.020 65.664,237.200 64.933,237.200 64.176 C 237.200 63.419,237.380 62.800,237.600 62.800 C 237.820 62.800,238.000 62.260,238.000 61.600 C 238.000 60.940,238.180 60.400,238.400 60.400 C 238.620 60.400,238.800 59.871,238.800 59.224 C 238.800 58.577,238.960 57.948,239.156 57.827 C 239.351 57.706,239.613 57.021,239.737 56.304 C 240.279 53.166,240.522 52.173,240.850 51.759 C 241.043 51.517,241.316 50.212,241.457 48.859 C 241.598 47.507,241.868 46.400,242.057 46.400 C 242.246 46.400,242.400 45.860,242.400 45.200 C 242.400 44.540,242.580 44.000,242.800 44.000 C 243.020 44.000,243.200 43.370,243.200 42.600 C 243.200 41.830,243.380 41.200,243.600 41.200 C 243.820 41.200,244.000 40.660,244.000 40.000 C 244.000 39.340,244.180 38.800,244.400 38.800 C 244.620 38.800,244.800 38.260,244.800 37.600 C 244.800 36.940,244.980 36.400,245.200 36.400 C 245.420 36.400,245.600 35.680,245.600 34.800 C 245.600 33.920,245.780 33.200,246.000 33.200 C 246.220 33.200,246.400 32.480,246.400 31.600 C 246.400 30.720,246.580 30.000,246.800 30.000 C 247.020 30.000,247.200 29.460,247.200 28.800 C 247.200 28.140,247.380 27.600,247.600 27.600 C 247.820 27.600,248.000 26.970,248.000 26.200 C 248.000 25.430,248.180 24.800,248.400 24.800 C 248.620 24.800,248.800 24.260,248.800 23.600 C 248.800 22.940,248.980 22.400,249.200 22.400 C 249.420 22.400,249.600 21.680,249.600 20.800 C 249.600 19.920,249.780 19.200,250.000 19.200 C 250.229 19.200,250.400 18.000,250.400 16.400 C 250.400 14.800,250.229 13.600,250.000 13.600 C 249.780 13.600,249.600 13.181,249.600 12.670 C 249.600 12.158,249.285 11.443,248.900 11.079 C 246.449 8.766,245.974 8.400,245.418 8.400 C 245.078 8.400,244.800 8.220,244.800 8.000 C 244.800 7.778,243.733 7.600,242.400 7.600 C 241.067 7.600,240.000 7.422,240.000 7.200 C 240.000 6.957,238.200 6.800,235.400 6.800 C 232.600 6.800,230.800 6.643,230.800 6.400 C 230.800 6.149,228.333 6.000,224.200 6.000 C 220.067 6.000,217.600 5.851,217.600 5.600 C 217.600 5.340,211.867 5.200,201.200 5.200 C 190.533 5.200,184.800 5.340,184.800 5.600 M261.028 17.324 C 259.616 18.195,256.800 21.170,256.800 21.789 C 256.800 22.125,256.620 22.400,256.400 22.400 C 256.180 22.400,256.000 22.760,256.000 23.200 C 256.000 23.640,255.820 24.000,255.600 24.000 C 255.380 24.000,255.200 24.540,255.200 25.200 C 255.200 25.860,255.020 26.400,254.800 26.400 C 254.580 26.400,254.400 27.030,254.400 27.800 C 254.400 28.570,254.220 29.200,254.000 29.200 C 253.780 29.200,253.600 29.740,253.600 30.400 C 253.600 31.060,253.420 31.600,253.200 31.600 C 252.980 31.600,252.800 32.320,252.800 33.200 C 252.800 34.080,252.620 34.800,252.400 34.800 C 252.180 34.800,252.000 35.340,252.000 36.000 C 252.000 36.660,251.820 37.200,251.600 37.200 C 251.380 37.200,251.200 37.920,251.200 38.800 C 251.200 39.680,251.020 40.400,250.800 40.400 C 250.580 40.400,250.400 40.940,250.400 41.600 C 250.400 42.260,250.220 42.800,250.000 42.800 C 249.780 42.800,249.600 43.329,249.600 43.976 C 249.600 44.623,249.420 45.264,249.200 45.400 C 248.980 45.536,248.800 46.177,248.800 46.824 C 248.800 47.471,248.620 48.000,248.400 48.000 C 248.180 48.000,248.000 48.720,248.000 49.600 C 248.000 50.480,247.820 51.200,247.600 51.200 C 247.380 51.200,247.200 51.920,247.200 52.800 C 247.200 53.680,247.020 54.400,246.800 54.400 C 246.580 54.400,246.400 55.120,246.400 56.000 C 246.400 56.880,246.220 57.600,246.000 57.600 C 245.780 57.600,245.600 58.129,245.600 58.776 C 245.600 59.423,245.420 60.064,245.200 60.200 C 244.980 60.336,244.800 60.966,244.800 61.600 C 244.800 62.234,244.641 62.851,244.447 62.971 C 244.253 63.091,243.969 64.361,243.815 65.794 C 243.662 67.227,243.371 68.400,243.168 68.400 C 242.966 68.400,242.800 69.300,242.800 70.400 C 242.800 71.500,242.620 72.400,242.400 72.400 C 242.180 72.400,242.000 73.120,242.000 74.000 C 242.000 74.880,241.820 75.600,241.600 75.600 C 241.380 75.600,241.200 76.410,241.200 77.400 C 241.200 78.390,241.380 79.200,241.600 79.200 C 241.820 79.200,242.000 79.740,242.000 80.400 C 242.000 81.060,242.180 81.600,242.400 81.600 C 242.620 81.600,242.800 81.960,242.800 82.400 C 242.800 82.840,242.968 83.200,243.173 83.200 C 243.378 83.200,243.657 83.549,243.792 83.975 C 243.927 84.401,244.569 84.985,245.219 85.273 C 245.869 85.560,246.400 85.931,246.400 86.098 C 246.400 86.264,246.760 86.400,247.200 86.400 C 247.640 86.400,248.000 86.580,248.000 86.800 C 248.000 87.020,248.278 87.200,248.617 87.200 C 248.956 87.200,249.620 87.560,250.092 88.000 C 250.564 88.440,251.187 88.800,251.475 88.800 C 251.764 88.800,252.000 88.980,252.000 89.200 C 252.000 89.420,252.283 89.600,252.629 89.600 C 252.974 89.600,253.522 89.865,253.847 90.189 C 254.171 90.514,255.148 90.971,256.018 91.205 C 256.888 91.439,257.600 91.804,257.600 92.015 C 257.600 92.227,257.960 92.400,258.400 92.400 C 258.840 92.400,259.200 92.580,259.200 92.800 C 259.200 93.020,259.470 93.200,259.800 93.200 C 260.130 93.200,260.400 93.380,260.400 93.600 C 260.400 93.820,260.720 94.000,261.112 94.000 C 261.503 94.000,262.083 94.360,262.400 94.800 C 262.717 95.240,263.297 95.600,263.688 95.600 C 264.080 95.600,264.400 95.780,264.400 96.000 C 264.400 96.220,264.760 96.400,265.200 96.400 C 265.640 96.400,266.000 96.580,266.000 96.800 C 266.000 97.020,266.360 97.200,266.800 97.200 C 267.240 97.200,267.600 97.380,267.600 97.600 C 267.600 97.820,267.920 98.000,268.312 98.000 C 268.703 98.000,269.283 98.360,269.600 98.800 C 269.917 99.240,270.497 99.600,270.888 99.600 C 271.280 99.600,271.600 99.780,271.600 100.000 C 271.600 100.231,272.867 100.400,274.600 100.400 C 276.333 100.400,277.600 100.231,277.600 100.000 C 277.600 99.780,277.874 99.600,278.209 99.600 C 278.950 99.600,283.200 95.425,283.200 94.697 C 283.200 94.411,283.560 93.917,284.000 93.600 C 284.440 93.283,284.800 92.743,284.800 92.400 C 284.800 92.057,285.160 91.517,285.600 91.200 C 286.040 90.883,286.400 90.393,286.400 90.112 C 286.400 89.830,286.580 89.600,286.800 89.600 C 287.020 89.600,287.200 89.364,287.200 89.075 C 287.200 88.787,287.560 88.164,288.000 87.692 C 288.440 87.220,288.800 86.638,288.800 86.400 C 288.800 86.162,289.160 85.580,289.600 85.108 C 290.040 84.636,290.400 84.013,290.400 83.725 C 290.400 83.436,290.580 83.200,290.800 83.200 C 291.020 83.200,291.200 82.853,291.200 82.429 C 291.200 82.004,291.470 81.387,291.800 81.057 C 292.130 80.727,292.400 80.214,292.400 79.917 C 292.400 79.620,292.760 79.117,293.200 78.800 C 293.640 78.483,294.000 77.943,294.000 77.600 C 294.000 77.257,294.360 76.717,294.800 76.400 C 295.240 76.083,295.600 75.593,295.600 75.312 C 295.600 75.030,295.780 74.800,296.000 74.800 C 296.220 74.800,296.400 74.530,296.400 74.200 C 296.400 73.870,296.580 73.600,296.800 73.600 C 297.020 73.600,297.200 73.330,297.200 73.000 C 297.200 72.670,297.380 72.400,297.600 72.400 C 297.820 72.400,298.000 72.080,298.000 71.688 C 298.000 71.297,298.360 70.717,298.800 70.400 C 299.240 70.083,299.600 69.543,299.600 69.200 C 299.600 68.857,299.960 68.317,300.400 68.000 C 300.840 67.683,301.200 67.186,301.200 66.895 C 301.200 66.604,301.560 65.980,302.000 65.508 C 302.440 65.036,302.800 64.413,302.800 64.125 C 302.800 63.836,302.980 63.600,303.200 63.600 C 303.420 63.600,303.600 63.280,303.600 62.888 C 303.600 62.497,303.960 61.917,304.400 61.600 C 304.840 61.283,305.200 60.743,305.200 60.400 C 305.200 60.057,305.560 59.517,306.000 59.200 C 306.440 58.883,306.800 58.427,306.800 58.187 C 306.800 57.947,307.153 57.372,307.584 56.910 C 308.015 56.447,308.494 55.558,308.648 54.934 C 308.802 54.310,309.259 53.509,309.664 53.153 C 310.069 52.797,310.400 52.252,310.400 51.941 C 310.400 51.631,310.760 51.117,311.200 50.800 C 311.663 50.467,312.000 49.765,312.000 49.135 C 312.000 48.537,312.180 47.936,312.400 47.800 C 312.620 47.664,312.800 47.034,312.800 46.400 C 312.800 45.766,312.620 45.136,312.400 45.000 C 312.180 44.864,312.000 44.173,312.000 43.465 C 312.000 42.635,311.715 41.971,311.200 41.600 C 310.760 41.283,310.400 40.780,310.400 40.483 C 310.400 39.838,309.431 38.800,308.829 38.800 C 308.593 38.800,308.400 38.620,308.400 38.400 C 308.400 38.180,308.130 38.000,307.800 38.000 C 307.470 38.000,307.200 37.820,307.200 37.600 C 307.200 37.380,306.840 37.200,306.400 37.200 C 305.960 37.200,305.600 37.020,305.600 36.800 C 305.600 36.580,305.150 36.400,304.600 36.400 C 304.050 36.400,303.600 36.220,303.600 36.000 C 303.600 35.780,303.240 35.600,302.800 35.600 C 302.360 35.600,302.000 35.420,302.000 35.200 C 302.000 34.980,301.640 34.800,301.200 34.800 C 300.760 34.800,300.400 34.620,300.400 34.400 C 300.400 34.180,300.040 34.000,299.600 34.000 C 299.160 34.000,298.800 33.820,298.800 33.600 C 298.800 33.380,298.480 33.200,298.088 33.200 C 297.697 33.200,297.117 32.840,296.800 32.400 C 296.483 31.960,295.824 31.600,295.335 31.600 C 294.847 31.600,294.336 31.420,294.200 31.200 C 294.064 30.980,293.603 30.800,293.176 30.800 C 292.749 30.800,292.400 30.620,292.400 30.400 C 292.400 30.180,292.145 30.000,291.833 30.000 C 291.522 30.000,291.207 29.865,291.133 29.700 C 290.932 29.248,286.894 27.200,286.203 27.200 C 285.871 27.200,285.600 27.020,285.600 26.800 C 285.600 26.580,285.240 26.400,284.800 26.400 C 284.360 26.400,284.000 26.220,284.000 26.000 C 284.000 25.780,283.640 25.600,283.200 25.600 C 282.760 25.600,282.400 25.420,282.400 25.200 C 282.400 24.980,282.040 24.800,281.600 24.800 C 281.160 24.800,280.800 24.620,280.800 24.400 C 280.800 24.180,280.440 24.000,280.000 24.000 C 279.560 24.000,279.200 23.820,279.200 23.600 C 279.200 23.380,278.840 23.200,278.400 23.200 C 277.960 23.200,277.600 23.020,277.600 22.800 C 277.600 22.580,277.240 22.400,276.800 22.400 C 276.360 22.400,275.999 22.265,275.997 22.100 C 275.993 21.694,274.014 20.800,273.120 20.800 C 272.724 20.800,272.400 20.620,272.400 20.400 C 272.400 20.180,272.040 20.000,271.600 20.000 C 271.160 20.000,270.800 19.820,270.800 19.600 C 270.800 19.380,270.440 19.200,270.000 19.200 C 269.560 19.200,269.200 19.020,269.200 18.800 C 269.200 18.580,268.840 18.400,268.400 18.400 C 267.960 18.400,267.600 18.220,267.600 18.000 C 267.600 17.780,267.071 17.600,266.424 17.600 C 265.777 17.600,265.136 17.420,265.000 17.200 C 264.663 16.654,261.977 16.737,261.028 17.324 M100.400 33.600 C 100.400 33.820,99.860 34.000,99.200 34.000 C 98.540 34.000,98.000 34.180,98.000 34.400 C 98.000 34.620,97.640 34.800,97.200 34.800 C 96.760 34.800,96.400 34.980,96.400 35.200 C 96.400 35.420,96.040 35.600,95.600 35.600 C 95.160 35.600,94.800 35.780,94.800 36.000 C 94.800 36.220,94.530 36.400,94.200 36.400 C 93.870 36.400,93.600 36.580,93.600 36.800 C 93.600 37.020,93.240 37.200,92.800 37.200 C 92.360 37.200,92.000 37.380,92.000 37.600 C 92.000 37.820,91.640 38.000,91.200 38.000 C 90.760 38.000,90.400 38.180,90.400 38.400 C 90.400 38.620,90.080 38.800,89.688 38.800 C 89.297 38.800,88.717 39.160,88.400 39.600 C 88.083 40.040,87.503 40.400,87.112 40.400 C 86.720 40.400,86.400 40.580,86.400 40.800 C 86.400 41.020,86.040 41.200,85.600 41.200 C 85.160 41.200,84.800 41.380,84.800 41.600 C 84.800 41.820,84.480 42.000,84.088 42.000 C 83.697 42.000,83.117 42.360,82.800 42.800 C 82.483 43.240,81.994 43.600,81.713 43.600 C 81.432 43.600,80.325 44.230,79.253 45.000 C 78.181 45.770,77.173 46.400,77.013 46.400 C 76.852 46.400,76.217 46.940,75.600 47.600 C 74.983 48.260,74.267 48.800,74.008 48.800 C 73.749 48.800,72.846 49.520,72.000 50.400 C 71.154 51.280,70.259 52.000,70.009 52.000 C 69.760 52.000,68.496 53.080,67.200 54.400 C 65.904 55.720,64.666 56.800,64.447 56.800 C 63.895 56.800,56.000 64.648,56.000 65.197 C 56.000 65.443,54.920 66.704,53.600 68.000 C 52.280 69.296,51.200 70.563,51.200 70.817 C 51.200 71.071,50.660 71.783,50.000 72.400 C 49.340 73.017,48.800 73.737,48.800 74.000 C 48.800 74.263,48.260 74.983,47.600 75.600 C 46.940 76.217,46.400 76.852,46.400 77.013 C 46.400 77.173,45.770 78.181,45.000 79.253 C 44.230 80.325,43.600 81.471,43.600 81.801 C 43.600 82.130,43.420 82.400,43.200 82.400 C 42.980 82.400,42.800 82.760,42.800 83.200 C 42.800 83.640,42.620 84.000,42.400 84.000 C 42.180 84.000,42.000 84.320,42.000 84.712 C 42.000 85.103,41.640 85.683,41.200 86.000 C 40.760 86.317,40.400 86.897,40.400 87.288 C 40.400 87.680,40.220 88.000,40.000 88.000 C 39.780 88.000,39.600 88.360,39.600 88.800 C 39.600 89.240,39.420 89.600,39.200 89.600 C 38.980 89.600,38.800 89.920,38.800 90.312 C 38.800 90.703,38.440 91.283,38.000 91.600 C 37.560 91.917,37.200 92.497,37.200 92.888 C 37.200 93.280,37.054 93.600,36.875 93.600 C 36.696 93.600,36.302 94.230,36.000 95.000 C 35.698 95.770,35.304 96.400,35.125 96.400 C 34.946 96.400,34.800 96.760,34.800 97.200 C 34.800 97.640,34.620 98.000,34.400 98.000 C 34.180 98.000,34.000 98.360,34.000 98.800 C 34.000 99.240,33.820 99.600,33.600 99.600 C 33.380 99.600,33.200 100.039,33.200 100.576 C 33.200 101.113,33.020 101.664,32.800 101.800 C 32.580 101.936,32.400 102.397,32.400 102.824 C 32.400 103.251,32.220 103.600,32.000 103.600 C 31.780 103.600,31.600 103.960,31.600 104.400 C 31.600 104.840,31.420 105.200,31.200 105.200 C 30.980 105.200,30.800 105.560,30.800 106.000 C 30.800 106.440,30.620 106.800,30.400 106.800 C 30.180 106.800,30.000 107.160,30.000 107.600 C 30.000 108.040,29.820 108.400,29.600 108.400 C 29.380 108.400,29.200 108.679,29.200 109.019 C 29.200 109.360,28.835 110.394,28.389 111.317 C 27.943 112.240,27.470 113.671,27.338 114.498 C 27.206 115.324,26.941 116.000,26.749 116.000 C 26.557 116.000,26.400 116.540,26.400 117.200 C 26.400 117.860,26.220 118.400,26.000 118.400 C 25.780 118.400,25.600 118.940,25.600 119.600 C 25.600 120.260,25.420 120.800,25.200 120.800 C 24.980 120.800,24.800 121.239,24.800 121.776 C 24.800 122.313,24.620 122.864,24.400 123.000 C 24.180 123.136,24.000 123.597,24.000 124.024 C 24.000 124.451,23.820 124.800,23.600 124.800 C 23.380 124.800,23.200 125.340,23.200 126.000 C 23.200 126.660,23.020 127.200,22.800 127.200 C 22.580 127.200,22.400 127.830,22.400 128.600 C 22.400 129.370,22.220 130.000,22.000 130.000 C 21.780 130.000,21.600 130.360,21.600 130.800 C 21.600 131.240,21.420 131.600,21.200 131.600 C 20.980 131.600,20.800 132.320,20.800 133.200 C 20.800 134.080,20.620 134.800,20.400 134.800 C 19.876 134.800,19.876 139.876,20.400 140.200 C 20.620 140.336,20.800 141.067,20.800 141.824 C 20.800 142.581,20.980 143.200,21.200 143.200 C 21.420 143.200,21.600 143.475,21.600 143.811 C 21.600 144.842,25.060 148.000,26.189 148.000 C 26.745 148.000,27.200 148.180,27.200 148.400 C 27.200 148.663,36.800 148.800,55.200 148.800 C 73.600 148.800,83.200 148.663,83.200 148.400 C 83.200 148.180,83.920 148.000,84.800 148.000 C 85.680 148.000,86.400 147.820,86.400 147.600 C 86.400 147.380,86.670 147.200,87.000 147.200 C 87.330 147.200,87.600 147.020,87.600 146.800 C 87.600 146.580,87.848 146.400,88.151 146.400 C 88.455 146.400,88.927 145.860,89.200 145.200 C 89.473 144.540,89.855 144.000,90.049 144.000 C 90.242 144.000,90.400 143.640,90.400 143.200 C 90.400 142.760,90.568 142.400,90.773 142.400 C 90.978 142.400,91.274 141.995,91.430 141.500 C 91.587 141.005,92.049 140.309,92.457 139.953 C 92.866 139.597,93.200 139.052,93.200 138.741 C 93.200 138.431,93.560 137.917,94.000 137.600 C 94.440 137.283,94.800 136.743,94.800 136.400 C 94.800 136.057,95.160 135.517,95.600 135.200 C 96.040 134.883,96.400 134.375,96.400 134.072 C 96.400 133.769,96.940 133.017,97.600 132.400 C 98.260 131.783,98.800 131.063,98.800 130.800 C 98.800 130.537,99.340 129.817,100.000 129.200 C 100.660 128.583,101.200 127.863,101.200 127.600 C 101.200 127.337,101.740 126.617,102.400 126.000 C 103.060 125.383,103.600 124.696,103.600 124.473 C 103.600 124.249,103.742 124.007,103.915 123.933 C 104.088 123.860,104.853 122.997,105.615 122.016 C 106.377 121.034,107.360 119.828,107.800 119.335 C 109.306 117.648,109.600 117.233,109.600 116.800 C 109.600 116.561,111.040 114.941,112.800 113.200 C 114.560 111.459,116.000 109.757,116.000 109.417 C 116.000 109.078,116.168 108.800,116.373 108.800 C 116.726 108.800,120.596 105.224,126.219 99.700 C 127.619 98.325,128.965 97.200,129.211 97.200 C 129.828 97.200,130.800 96.171,130.800 95.517 C 130.800 95.220,131.160 94.717,131.600 94.400 C 132.040 94.083,132.400 93.503,132.400 93.112 C 132.400 92.720,132.580 92.400,132.800 92.400 C 133.043 92.400,133.200 90.600,133.200 87.800 C 133.200 85.000,133.043 83.200,132.800 83.200 C 132.580 83.200,132.400 82.840,132.400 82.400 C 132.400 81.960,132.220 81.600,132.000 81.600 C 131.780 81.600,131.600 81.240,131.600 80.800 C 131.600 80.360,131.420 80.000,131.200 80.000 C 130.980 80.000,130.800 79.676,130.800 79.280 C 130.800 78.386,129.906 76.407,129.500 76.403 C 129.335 76.401,129.200 76.040,129.200 75.600 C 129.200 75.160,129.020 74.800,128.800 74.800 C 128.580 74.800,128.400 74.440,128.400 74.000 C 128.400 73.560,128.220 73.200,128.000 73.200 C 127.780 73.200,127.600 72.840,127.600 72.400 C 127.600 71.960,127.420 71.600,127.200 71.600 C 126.980 71.600,126.800 71.240,126.800 70.800 C 126.800 70.360,126.620 70.000,126.400 70.000 C 126.180 70.000,126.000 69.640,126.000 69.200 C 126.000 68.760,125.836 68.400,125.635 68.400 C 125.434 68.400,125.143 67.648,124.988 66.728 C 124.725 65.174,123.605 62.704,122.762 61.820 C 122.563 61.611,122.400 61.116,122.400 60.720 C 122.400 60.324,122.220 60.000,122.000 60.000 C 121.780 60.000,121.600 59.640,121.600 59.200 C 121.600 58.760,121.420 58.400,121.200 58.400 C 120.980 58.400,120.800 58.040,120.800 57.600 C 120.800 57.160,120.620 56.800,120.400 56.800 C 120.180 56.800,120.000 56.440,120.000 56.000 C 120.000 55.560,119.820 55.200,119.600 55.200 C 119.380 55.200,119.200 54.840,119.200 54.400 C 119.200 53.960,119.020 53.600,118.800 53.600 C 118.580 53.600,118.400 53.240,118.400 52.800 C 118.400 52.360,118.220 52.000,118.000 52.000 C 117.780 52.000,117.600 51.640,117.600 51.200 C 117.600 50.760,117.420 50.400,117.200 50.400 C 116.980 50.400,116.800 50.040,116.800 49.600 C 116.800 49.160,116.654 48.800,116.475 48.800 C 116.296 48.800,115.902 48.170,115.600 47.400 C 115.298 46.630,114.904 46.000,114.725 46.000 C 114.546 46.000,114.400 45.730,114.400 45.400 C 114.400 45.070,114.220 44.800,114.000 44.800 C 113.780 44.800,113.600 44.390,113.600 43.888 C 113.600 43.387,113.240 42.717,112.800 42.400 C 112.360 42.083,112.000 41.503,112.000 41.112 C 112.000 40.720,111.820 40.400,111.600 40.400 C 111.380 40.400,111.200 40.124,111.200 39.787 C 111.200 39.449,110.615 38.562,109.900 37.814 C 109.185 37.067,108.150 35.908,107.600 35.240 C 107.050 34.571,106.285 34.019,105.900 34.012 C 105.515 34.005,105.200 33.820,105.200 33.600 C 105.200 33.378,104.133 33.200,102.800 33.200 C 101.467 33.200,100.400 33.378,100.400 33.600 M320.000 54.800 C 320.000 55.020,319.726 55.200,319.391 55.200 C 318.413 55.200,312.000 62.060,312.000 63.107 C 312.000 63.301,311.550 63.883,311.000 64.400 C 310.450 64.917,310.000 65.668,310.000 66.070 C 310.000 66.471,309.820 66.800,309.600 66.800 C 309.380 66.800,309.200 67.088,309.200 67.440 C 309.200 67.791,308.660 68.583,308.000 69.200 C 307.340 69.817,306.800 70.569,306.800 70.872 C 306.800 71.175,306.440 71.683,306.000 72.000 C 305.560 72.317,305.200 72.857,305.200 73.200 C 305.200 73.543,304.840 74.083,304.400 74.400 C 303.960 74.717,303.600 75.257,303.600 75.600 C 303.600 75.943,303.240 76.483,302.800 76.800 C 302.360 77.117,302.000 77.567,302.000 77.800 C 302.000 78.033,301.640 78.483,301.200 78.800 C 300.760 79.117,300.400 79.657,300.400 80.000 C 300.400 80.343,300.040 80.883,299.600 81.200 C 299.160 81.517,298.800 82.057,298.800 82.400 C 298.800 82.743,298.440 83.283,298.000 83.600 C 297.560 83.917,297.200 84.497,297.200 84.888 C 297.200 85.280,297.050 85.600,296.868 85.600 C 296.685 85.600,296.281 86.095,295.970 86.700 C 295.660 87.305,295.118 88.070,294.767 88.400 C 294.415 88.730,294.006 89.495,293.856 90.100 C 293.707 90.705,293.408 91.200,293.192 91.200 C 292.977 91.200,292.800 91.520,292.800 91.912 C 292.800 92.303,292.440 92.883,292.000 93.200 C 291.560 93.517,291.200 94.007,291.200 94.288 C 291.200 94.570,291.050 94.800,290.868 94.800 C 290.685 94.800,290.281 95.295,289.970 95.900 C 289.660 96.505,289.089 97.291,288.703 97.647 C 288.316 98.003,288.000 98.548,288.000 98.859 C 288.000 99.169,287.640 99.683,287.200 100.000 C 286.760 100.317,286.400 100.897,286.400 101.288 C 286.400 101.680,286.220 102.000,286.000 102.000 C 285.780 102.000,285.600 102.619,285.600 103.376 C 285.600 104.133,285.420 104.864,285.200 105.000 C 284.980 105.136,284.800 105.766,284.800 106.400 C 284.800 107.034,284.980 107.664,285.200 107.800 C 285.420 107.936,285.600 108.577,285.600 109.224 C 285.600 109.871,285.780 110.400,286.000 110.400 C 286.220 110.400,286.400 110.684,286.400 111.031 C 286.400 111.379,287.120 112.354,288.000 113.200 C 288.880 114.046,289.600 114.943,289.600 115.195 C 289.600 115.446,290.500 116.529,291.600 117.600 C 292.700 118.671,293.600 119.752,293.600 120.001 C 293.600 120.452,295.384 122.833,297.100 124.672 C 297.595 125.202,298.000 125.781,298.000 125.959 C 298.000 126.136,298.540 126.846,299.200 127.537 C 299.860 128.228,300.400 129.025,300.400 129.308 C 300.400 129.591,300.760 130.083,301.200 130.400 C 301.640 130.717,302.000 131.257,302.000 131.600 C 302.000 131.943,302.360 132.483,302.800 132.800 C 303.240 133.117,303.600 133.657,303.600 134.000 C 303.600 134.343,303.960 134.883,304.400 135.200 C 304.840 135.517,305.200 136.057,305.200 136.400 C 305.200 136.743,305.560 137.283,306.000 137.600 C 306.440 137.917,306.800 138.497,306.800 138.888 C 306.800 139.280,306.980 139.600,307.200 139.600 C 307.420 139.600,307.600 139.960,307.600 140.400 C 307.600 140.840,307.780 141.200,308.000 141.200 C 308.220 141.200,308.400 141.470,308.400 141.800 C 308.400 142.130,308.580 142.400,308.800 142.400 C 309.020 142.400,309.200 142.760,309.200 143.200 C 309.200 143.640,309.358 144.000,309.550 144.000 C 309.743 144.000,310.004 144.521,310.132 145.158 C 310.289 145.947,310.752 146.489,311.582 146.856 C 312.252 147.153,312.800 147.531,312.800 147.698 C 312.800 147.864,313.340 148.000,314.000 148.000 C 314.660 148.000,315.200 148.180,315.200 148.400 C 315.200 148.952,372.659 148.952,373.000 148.400 C 373.136 148.180,373.597 148.000,374.024 148.000 C 374.451 148.000,374.800 147.826,374.800 147.613 C 374.800 147.401,375.430 146.597,376.200 145.827 C 377.063 144.964,377.600 144.038,377.600 143.413 C 377.600 142.856,377.780 142.400,378.000 142.400 C 378.245 142.400,378.400 140.467,378.400 137.400 C 378.400 134.333,378.245 132.400,378.000 132.400 C 377.780 132.400,377.600 131.781,377.600 131.024 C 377.600 130.267,377.420 129.536,377.200 129.400 C 376.980 129.264,376.800 128.533,376.800 127.776 C 376.800 127.019,376.620 126.400,376.400 126.400 C 376.180 126.400,376.000 125.680,376.000 124.800 C 376.000 123.920,375.826 123.200,375.614 123.200 C 375.401 123.200,375.108 122.296,374.961 121.191 C 374.814 120.086,374.538 119.085,374.347 118.967 C 374.156 118.849,374.000 118.313,374.000 117.776 C 374.000 117.239,373.820 116.800,373.600 116.800 C 373.380 116.800,373.200 116.361,373.200 115.824 C 373.200 115.287,373.020 114.736,372.800 114.600 C 372.580 114.464,372.400 114.020,372.400 113.614 C 372.400 112.816,370.791 109.485,370.300 109.267 C 370.135 109.193,370.000 108.788,370.000 108.367 C 370.000 107.945,369.820 107.600,369.600 107.600 C 369.380 107.600,369.200 107.240,369.200 106.800 C 369.200 106.360,369.020 106.000,368.800 106.000 C 368.580 106.000,368.400 105.651,368.400 105.224 C 368.400 104.797,368.220 104.336,368.000 104.200 C 367.780 104.064,367.600 103.513,367.600 102.976 C 367.600 102.439,367.420 102.000,367.200 102.000 C 366.980 102.000,366.800 101.680,366.800 101.288 C 366.800 100.897,366.440 100.317,366.000 100.000 C 365.560 99.683,365.200 99.103,365.200 98.712 C 365.200 98.320,365.020 98.000,364.800 98.000 C 364.580 98.000,364.400 97.680,364.400 97.288 C 364.400 96.897,364.040 96.317,363.600 96.000 C 363.160 95.683,362.800 95.103,362.800 94.712 C 362.800 94.320,362.620 94.000,362.400 94.000 C 362.180 94.000,362.000 93.730,362.000 93.400 C 362.000 93.070,361.850 92.800,361.668 92.800 C 361.485 92.800,361.081 92.305,360.770 91.700 C 360.460 91.095,359.889 90.309,359.503 89.953 C 359.116 89.597,358.800 89.025,358.800 88.682 C 358.800 88.338,358.575 87.819,358.299 87.529 C 358.024 87.238,357.349 86.326,356.799 85.503 C 356.250 84.679,355.665 84.004,355.500 84.003 C 355.335 84.001,355.200 83.752,355.200 83.448 C 355.200 83.145,354.480 82.155,353.600 81.248 C 352.720 80.341,352.000 79.441,352.000 79.248 C 352.000 79.054,351.280 78.265,350.400 77.494 C 349.520 76.722,348.800 75.906,348.800 75.679 C 348.800 75.071,336.877 62.800,336.287 62.800 C 336.114 62.800,335.352 62.215,334.594 61.500 C 331.822 58.889,331.220 58.400,330.775 58.400 C 330.525 58.400,329.817 57.860,329.200 57.200 C 328.583 56.540,327.831 56.000,327.528 56.000 C 327.225 56.000,326.717 55.640,326.400 55.200 C 325.768 54.323,320.000 53.963,320.000 54.800 M18.400 155.600 C 18.400 155.820,17.942 156.000,17.383 156.000 C 16.824 156.000,15.980 156.360,15.508 156.800 C 15.036 157.240,14.435 157.600,14.173 157.600 C 13.911 157.600,13.473 158.140,13.200 158.800 C 12.927 159.460,12.545 160.000,12.351 160.000 C 12.158 160.000,12.000 160.349,12.000 160.776 C 12.000 161.203,11.820 161.664,11.600 161.800 C 11.342 161.959,11.200 169.137,11.200 182.024 C 11.200 195.075,11.339 202.000,11.600 202.000 C 11.820 202.000,12.000 202.360,12.000 202.800 C 12.000 203.240,12.137 203.600,12.305 203.600 C 12.473 203.600,12.788 203.990,13.005 204.467 C 13.222 204.944,13.750 205.529,14.178 205.767 C 14.606 206.005,15.315 206.515,15.754 206.900 C 16.192 207.285,17.136 207.600,17.852 207.600 C 18.567 207.600,19.264 207.780,19.400 208.000 C 19.561 208.260,28.663 208.400,45.400 208.400 C 62.137 208.400,71.239 208.260,71.400 208.000 C 71.536 207.780,72.060 207.600,72.565 207.600 C 74.246 207.600,76.800 204.581,76.800 202.595 C 76.800 201.828,76.980 201.200,77.200 201.200 C 77.461 201.200,77.600 194.475,77.600 181.824 C 77.600 169.337,77.458 162.359,77.200 162.200 C 76.980 162.064,76.800 161.513,76.800 160.976 C 76.800 160.439,76.620 160.000,76.400 160.000 C 76.180 160.000,76.000 159.717,76.000 159.371 C 76.000 159.026,75.775 158.508,75.500 158.220 C 75.225 157.933,74.735 157.316,74.412 156.849 C 74.088 156.382,73.424 156.000,72.935 156.000 C 72.447 156.000,71.936 155.820,71.800 155.600 C 71.459 155.048,18.400 155.048,18.400 155.600 M327.300 155.744 C 326.805 155.989,326.400 156.327,326.400 156.495 C 326.400 156.663,326.122 156.800,325.782 156.800 C 324.982 156.800,323.200 158.582,323.200 159.382 C 323.200 159.722,323.020 160.000,322.800 160.000 C 322.580 160.000,322.400 160.439,322.400 160.976 C 322.400 161.513,322.220 162.064,322.000 162.200 C 321.742 162.359,321.600 169.337,321.600 181.824 C 321.600 194.475,321.739 201.200,322.000 201.200 C 322.220 201.200,322.400 201.740,322.400 202.400 C 322.400 203.060,322.580 203.600,322.800 203.600 C 323.020 203.600,323.200 203.878,323.200 204.218 C 323.200 205.018,324.982 206.800,325.782 206.800 C 326.122 206.800,326.400 206.980,326.400 207.200 C 326.400 207.420,326.839 207.600,327.376 207.600 C 327.913 207.600,328.464 207.780,328.600 208.000 C 328.761 208.260,337.937 208.400,354.824 208.400 C 371.875 208.400,380.800 208.263,380.800 208.000 C 380.800 207.780,381.262 207.600,381.826 207.600 C 383.861 207.600,387.200 204.693,387.200 202.922 C 387.200 202.415,387.380 202.000,387.600 202.000 C 387.861 202.000,388.000 195.008,388.000 181.824 C 388.000 168.804,387.858 161.560,387.600 161.400 C 387.380 161.264,387.200 160.797,387.200 160.363 C 387.200 159.432,384.699 156.800,383.813 156.800 C 383.476 156.800,383.200 156.620,383.200 156.400 C 383.200 156.180,382.840 156.000,382.400 156.000 C 381.960 156.000,381.600 155.820,381.600 155.600 C 381.600 155.011,328.496 155.152,327.300 155.744 M17.600 215.600 C 17.600 215.820,17.240 216.000,16.800 216.000 C 16.360 216.000,16.000 216.180,16.000 216.400 C 16.000 216.620,15.722 216.800,15.382 216.800 C 14.305 216.800,12.000 219.658,12.000 220.995 C 12.000 221.328,11.820 221.600,11.600 221.600 C 10.960 221.600,11.058 283.360,11.700 284.495 C 12.630 286.139,15.698 288.800,16.664 288.800 C 17.179 288.800,17.600 288.980,17.600 289.200 C 17.600 289.890,72.049 289.735,73.387 289.041 C 74.780 288.318,76.000 287.000,76.000 286.217 C 76.000 285.878,76.180 285.600,76.400 285.600 C 76.620 285.600,76.800 285.240,76.800 284.800 C 76.800 284.360,76.980 284.000,77.200 284.000 C 77.463 284.000,77.600 273.467,77.600 253.200 C 77.600 232.933,77.463 222.400,77.200 222.400 C 76.980 222.400,76.800 221.762,76.800 220.982 C 76.800 220.052,76.490 219.244,75.900 218.637 C 75.405 218.127,74.735 217.326,74.412 216.855 C 74.088 216.385,73.503 216.000,73.112 216.000 C 72.720 216.000,72.400 215.820,72.400 215.600 C 72.400 215.337,63.000 215.200,45.000 215.200 C 27.000 215.200,17.600 215.337,17.600 215.600 M327.300 215.744 C 326.805 215.989,326.400 216.327,326.400 216.495 C 326.400 216.663,326.122 216.800,325.782 216.800 C 325.442 216.800,324.722 217.242,324.182 217.782 C 323.642 218.322,323.200 219.042,323.200 219.382 C 323.200 219.722,323.020 220.000,322.800 220.000 C 322.580 220.000,322.400 220.540,322.400 221.200 C 322.400 221.860,322.220 222.400,322.000 222.400 C 321.737 222.400,321.600 232.800,321.600 252.800 C 321.600 272.800,321.737 283.200,322.000 283.200 C 322.220 283.200,322.400 283.740,322.400 284.400 C 322.400 285.060,322.580 285.600,322.800 285.600 C 323.020 285.600,323.200 285.960,323.200 286.400 C 323.200 286.900,323.467 287.200,323.912 287.200 C 324.303 287.200,324.883 287.560,325.200 288.000 C 325.517 288.440,326.097 288.800,326.488 288.800 C 326.880 288.800,327.200 288.980,327.200 289.200 C 327.200 289.463,336.800 289.600,355.200 289.600 C 373.600 289.600,383.200 289.463,383.200 289.200 C 383.200 288.980,383.476 288.800,383.813 288.800 C 384.597 288.800,387.200 286.215,387.200 285.437 C 387.200 285.113,387.380 284.736,387.600 284.600 C 387.861 284.439,388.000 273.404,388.000 252.800 C 388.000 232.196,387.861 221.161,387.600 221.000 C 387.380 220.864,387.200 220.489,387.200 220.166 C 387.200 219.390,383.791 216.000,383.011 216.000 C 382.675 216.000,382.400 215.820,382.400 215.600 C 382.400 215.011,328.496 215.152,327.300 215.744 M10.800 296.828 C 10.250 297.016,9.316 297.268,8.725 297.387 C 7.473 297.638,3.600 301.256,3.600 302.174 C 3.600 302.518,3.420 302.800,3.200 302.800 C 2.936 302.800,2.800 317.533,2.800 346.200 C 2.800 374.867,2.936 389.600,3.200 389.600 C 3.420 389.600,3.600 389.960,3.600 390.400 C 3.600 390.840,3.774 391.200,3.987 391.200 C 4.199 391.200,5.003 391.830,5.773 392.600 C 6.543 393.370,7.449 394.000,7.787 394.000 C 8.124 394.000,8.400 394.180,8.400 394.400 C 8.400 394.664,20.867 394.800,45.000 394.800 C 69.133 394.800,81.600 394.664,81.600 394.400 C 81.600 394.180,81.878 394.000,82.218 394.000 C 82.914 394.000,84.800 392.260,84.800 391.618 C 84.800 391.388,84.980 391.200,85.200 391.200 C 85.420 391.200,85.600 390.851,85.600 390.424 C 85.600 389.997,85.780 389.536,86.000 389.400 C 86.553 389.058,86.553 302.800,86.000 302.800 C 85.780 302.800,85.600 302.440,85.600 302.000 C 85.600 301.560,85.420 301.200,85.200 301.200 C 84.980 301.200,84.800 300.924,84.800 300.587 C 84.800 299.579,82.140 297.200,81.013 297.200 C 80.456 297.200,80.000 297.020,80.000 296.800 C 80.000 296.300,12.262 296.327,10.800 296.828 M321.000 296.800 C 320.864 297.020,320.110 297.200,319.323 297.200 C 318.445 297.200,317.644 297.481,317.247 297.928 C 316.891 298.328,316.285 298.772,315.900 298.915 C 315.515 299.058,315.200 299.411,315.200 299.699 C 315.200 299.987,314.840 300.483,314.400 300.800 C 313.930 301.139,313.600 301.835,313.600 302.488 C 313.600 303.100,313.420 303.600,313.200 303.600 C 312.936 303.600,312.800 318.046,312.800 346.139 C 312.800 391.523,312.769 390.753,314.644 391.472 C 314.950 391.590,315.200 391.942,315.200 392.255 C 315.200 392.569,315.515 392.945,315.900 393.092 C 316.285 393.239,316.949 393.684,317.375 394.080 C 318.278 394.918,391.600 395.235,391.600 394.400 C 391.600 394.180,391.876 394.000,392.213 394.000 C 393.110 394.000,395.600 391.363,395.600 390.413 C 395.600 389.966,395.780 389.600,396.000 389.600 C 396.264 389.600,396.400 374.867,396.400 346.200 C 396.400 317.533,396.264 302.800,396.000 302.800 C 395.780 302.800,395.600 302.440,395.600 302.000 C 395.600 301.560,395.420 301.200,395.200 301.200 C 394.980 301.200,394.800 300.922,394.800 300.582 C 394.800 299.782,393.018 298.000,392.218 298.000 C 391.878 298.000,391.600 297.820,391.600 297.600 C 391.600 297.380,391.251 297.200,390.824 297.200 C 390.397 297.200,389.936 297.020,389.800 296.800 C 389.638 296.538,377.737 296.400,355.400 296.400 C 333.063 296.400,321.162 296.538,321.000 296.800 " stroke="none" fill="#343434" fill-rule="evenodd"></path><path id="path3" d="" stroke="none" fill="#648020" fill-rule="evenodd"></path><path id="path4" d="M114.520 324.298 C 116.455 324.372,119.515 324.371,121.320 324.297 C 123.124 324.223,121.540 324.163,117.800 324.164 C 114.060 324.164,112.584 324.225,114.520 324.298 " stroke="none" fill="#683420" fill-rule="evenodd"></path></g></svg>