<svg id="svg" version="1.1" xmlns="http://www.w3.org/2000/svg" xmlns:xlink="http://www.w3.org/1999/xlink" width="400" height="399.00249376558605" viewBox="0, 0, 400,399.00249376558605"><g id="svgg"><path id="path0" d="M264.671 0.095 C 264.561 0.204,262.474 0.406,260.033 0.546 C 254.778 0.846,251.847 1.199,251.297 1.597 C 251.078 1.757,250.449 1.844,249.900 1.792 C 249.351 1.739,248.643 1.899,248.327 2.146 C 247.865 2.505,247.821 2.476,248.104 1.996 C 248.386 1.518,248.341 1.486,247.881 1.841 C 247.564 2.085,246.677 2.391,245.908 2.521 C 245.140 2.650,244.062 2.869,243.513 3.007 C 242.964 3.145,242.246 3.258,241.916 3.259 C 241.587 3.260,241.048 3.362,240.719 3.487 C 239.571 3.921,239.304 3.992,236.527 4.610 C 234.990 4.952,233.673 5.402,233.599 5.610 C 233.526 5.818,233.144 5.988,232.750 5.988 C 232.356 5.988,231.383 6.260,230.588 6.592 C 229.792 6.924,229.142 7.099,229.142 6.981 C 229.142 6.863,228.605 7.044,227.948 7.383 C 227.292 7.722,226.708 7.980,226.651 7.955 C 226.594 7.930,226.098 8.092,225.549 8.314 C 223.632 9.089,222.952 9.308,222.655 9.245 C 222.490 9.210,222.355 9.372,222.355 9.604 C 222.355 9.837,222.174 9.915,221.953 9.779 C 221.732 9.642,221.031 9.901,220.395 10.354 C 219.759 10.807,219.120 11.178,218.976 11.178 C 218.833 11.178,217.201 11.900,215.350 12.784 C 213.499 13.667,211.848 14.405,211.681 14.424 C 211.514 14.443,210.883 14.811,210.279 15.241 C 209.676 15.671,209.182 15.913,209.182 15.780 C 209.182 15.647,208.795 15.898,208.323 16.338 C 207.850 16.778,207.324 17.052,207.153 16.946 C 206.982 16.840,206.727 16.939,206.587 17.165 C 206.447 17.391,205.582 17.959,204.664 18.426 C 203.745 18.894,202.703 19.610,202.348 20.017 C 201.993 20.425,201.512 20.758,201.279 20.758 C 201.046 20.758,200.618 20.983,200.328 21.258 C 200.038 21.533,199.127 22.113,198.303 22.547 C 197.480 22.980,196.806 23.478,196.806 23.654 C 196.806 23.829,196.357 24.143,195.808 24.351 C 195.259 24.560,194.810 24.910,194.810 25.130 C 194.810 25.349,194.316 25.784,193.713 26.097 C 193.109 26.410,192.151 27.088,191.584 27.605 C 189.270 29.711,186.296 32.171,185.393 32.727 C 184.864 33.052,184.431 33.547,184.431 33.825 C 184.431 34.103,184.242 34.331,184.011 34.331 C 183.611 34.331,177.844 40.168,174.850 43.602 C 174.082 44.484,173.041 45.649,172.537 46.191 C 172.034 46.733,171.203 47.835,170.691 48.638 C 170.179 49.442,169.320 50.569,168.783 51.142 C 168.245 51.716,167.317 53.018,166.720 54.036 C 166.123 55.055,165.452 55.888,165.229 55.888 C 165.006 55.888,164.934 56.068,165.070 56.287 C 165.206 56.507,165.122 56.687,164.884 56.687 C 164.646 56.687,164.277 57.091,164.063 57.585 C 163.849 58.079,163.450 58.835,163.175 59.265 C 161.151 62.432,160.035 64.130,159.747 64.484 C 159.562 64.711,159.299 65.344,159.162 65.890 C 159.025 66.436,158.563 67.258,158.135 67.717 C 157.708 68.176,157.030 69.475,156.629 70.603 C 156.228 71.732,155.763 72.655,155.595 72.655 C 155.427 72.655,155.289 72.852,155.289 73.093 C 155.289 73.593,154.056 76.344,153.697 76.647 C 153.566 76.756,153.207 77.655,152.898 78.643 C 152.590 79.631,152.027 81.068,151.647 81.836 C 150.761 83.631,149.659 87.423,150.022 87.431 C 150.174 87.435,150.080 87.577,149.811 87.748 C 149.543 87.918,149.004 89.308,148.614 90.835 C 148.223 92.363,147.768 93.673,147.602 93.747 C 147.436 93.820,147.400 94.041,147.521 94.237 C 147.642 94.434,147.571 94.912,147.363 95.301 C 147.155 95.690,146.897 96.547,146.790 97.206 C 146.215 100.728,146.020 101.668,145.715 102.395 C 145.282 103.427,144.615 107.897,144.269 112.076 C 144.119 113.887,143.874 115.369,143.724 115.369 C 143.405 115.369,143.245 119.478,143.226 128.144 C 143.208 136.304,143.382 140.519,143.737 140.519 C 144.254 140.519,144.575 141.829,145.347 147.106 C 145.766 149.960,146.551 154.271,147.093 156.687 C 148.157 161.426,147.851 163.074,145.909 163.074 C 145.518 163.074,143.741 164.548,141.960 166.349 C 140.179 168.150,137.250 171.114,135.449 172.936 C 133.649 174.757,130.730 177.662,128.962 179.391 C 127.195 181.120,125.749 182.692,125.749 182.884 C 125.749 183.076,125.509 183.234,125.217 183.234 C 124.925 183.234,124.445 183.683,124.152 184.232 C 123.858 184.780,123.409 185.230,123.154 185.230 C 122.899 185.230,122.449 185.679,122.156 186.228 C 121.862 186.776,121.382 187.226,121.090 187.226 C 119.318 187.226,120.924 189.357,127.857 196.208 L 135.130 203.393 67.560 271.015 L -0.009 338.637 0.095 353.602 L 0.200 368.568 75.250 293.457 C 116.527 252.146,150.518 218.395,150.786 218.454 C 151.308 218.571,166.068 233.094,166.068 233.491 C 166.068 233.621,128.838 270.960,83.335 316.465 L 0.601 399.202 15.227 399.202 L 29.854 399.202 49.064 380.028 L 68.274 360.854 64.864 350.622 C 60.915 338.774,60.969 339.684,64.271 340.569 C 65.699 340.951,66.687 341.287,66.467 341.315 C 66.248 341.343,67.412 341.727,69.055 342.168 C 70.699 342.609,72.136 343.110,72.249 343.282 C 72.362 343.453,72.904 343.699,73.453 343.829 C 77.523 344.788,78.244 345.022,78.244 345.384 C 78.244 345.610,78.477 345.704,78.763 345.595 C 79.048 345.485,79.722 345.639,80.260 345.937 C 80.797 346.235,81.531 346.485,81.890 346.493 C 82.249 346.501,104.614 324.413,131.590 297.410 C 158.567 270.406,180.773 248.356,180.936 248.408 C 181.607 248.622,196.008 263.201,196.008 263.666 C 196.008 264.276,210.512 279.042,211.111 279.042 C 211.829 279.042,226.347 264.283,226.347 263.552 C 226.347 263.174,228.947 260.269,232.125 257.097 L 237.902 251.330 242.205 252.229 C 260.297 256.011,278.279 256.450,294.012 253.493 C 298.344 252.679,303.673 251.454,305.190 250.923 C 306.068 250.616,308.942 249.696,311.577 248.878 C 314.212 248.061,316.547 247.261,316.766 247.101 C 316.986 246.941,317.884 246.584,318.762 246.308 C 319.641 246.031,320.808 245.567,321.357 245.276 C 321.906 244.985,323.972 243.995,325.948 243.076 C 333.834 239.409,343.164 233.606,349.900 228.177 C 352.096 226.407,354.238 224.688,354.660 224.356 C 360.970 219.396,373.876 204.422,378.577 196.607 C 380.213 193.886,386.028 183.561,386.028 183.376 C 386.028 183.279,386.567 182.048,387.226 180.639 C 387.884 179.230,388.423 177.985,388.423 177.873 C 388.423 177.760,388.844 176.720,389.358 175.561 C 391.208 171.392,394.079 162.408,394.848 158.382 C 395.110 157.010,395.461 155.618,395.628 155.287 C 395.795 154.956,396.224 152.621,396.580 150.097 C 396.937 147.574,397.419 144.664,397.652 143.632 C 398.457 140.055,399.186 120.233,398.684 115.569 C 398.518 114.032,398.343 112.056,398.293 111.178 C 398.244 110.299,398.091 109.401,397.954 109.182 C 397.817 108.962,397.575 107.794,397.416 106.587 C 397.257 105.379,397.045 104.032,396.944 103.593 C 396.842 103.154,396.755 102.525,396.750 102.196 C 396.744 101.866,396.635 101.327,396.508 100.998 C 396.381 100.669,396.246 100.130,396.208 99.800 C 396.170 99.471,396.033 98.932,395.905 98.603 C 395.715 98.118,395.341 96.630,394.600 93.413 C 394.575 93.303,394.364 92.764,394.132 92.216 C 393.609 90.977,392.817 88.051,392.538 86.327 C 392.422 85.614,392.182 85.030,392.004 85.030 C 391.826 85.030,391.553 84.446,391.398 83.733 C 391.243 83.019,390.883 82.100,390.598 81.691 C 390.313 81.281,390.187 80.668,390.318 80.328 C 390.462 79.952,390.389 79.812,390.134 79.969 C 389.882 80.125,389.534 79.520,389.268 78.462 C 389.023 77.490,388.640 76.581,388.417 76.443 C 388.194 76.305,388.114 76.025,388.241 75.821 C 388.367 75.616,388.294 75.449,388.079 75.449 C 387.864 75.449,387.570 74.912,387.426 74.256 C 387.282 73.600,386.998 72.961,386.796 72.835 C 386.593 72.710,386.427 72.259,386.427 71.833 C 386.427 71.407,386.284 71.058,386.108 71.058 C 385.933 71.058,385.562 70.429,385.284 69.661 C 385.006 68.892,384.600 68.263,384.382 68.263 C 384.163 68.263,384.096 68.084,384.232 67.864 C 384.367 67.645,384.295 67.465,384.071 67.465 C 383.847 67.465,383.468 66.737,383.228 65.848 C 382.988 64.958,382.555 64.139,382.265 64.028 C 381.975 63.917,381.413 63.037,381.016 62.074 C 380.618 61.111,380.146 60.413,379.967 60.524 C 379.788 60.635,379.641 60.501,379.641 60.227 C 379.641 59.465,373.681 50.722,372.792 50.178 C 372.362 49.916,371.721 49.072,371.367 48.303 C 371.013 47.535,370.036 46.226,369.194 45.394 C 368.353 44.563,367.665 43.797,367.665 43.692 C 367.665 43.546,361.961 37.564,360.178 35.840 C 359.044 34.742,356.335 32.335,356.235 32.335 C 356.168 32.335,355.224 31.482,354.137 30.439 C 353.050 29.396,351.664 28.184,351.057 27.745 C 350.450 27.305,349.411 26.455,348.748 25.855 C 348.084 25.255,346.949 24.483,346.226 24.140 C 345.502 23.796,344.910 23.344,344.910 23.135 C 344.910 22.926,344.635 22.754,344.299 22.754 C 343.963 22.754,343.585 22.486,343.459 22.158 C 343.333 21.830,343.089 21.648,342.918 21.754 C 342.746 21.860,342.391 21.689,342.129 21.373 C 341.866 21.057,340.704 20.263,339.546 19.610 C 338.388 18.956,337.190 18.171,336.884 17.865 C 336.578 17.559,336.148 17.262,335.928 17.206 C 335.709 17.151,333.912 16.281,331.936 15.274 C 329.960 14.267,327.804 13.172,327.146 12.841 C 326.487 12.509,325.833 12.066,325.693 11.856 C 325.553 11.646,325.211 11.615,324.933 11.787 C 324.639 11.969,324.527 11.938,324.666 11.714 C 324.797 11.501,323.915 11.023,322.706 10.651 C 321.497 10.279,319.767 9.616,318.862 9.179 C 317.956 8.741,316.980 8.383,316.691 8.383 C 316.403 8.383,316.168 8.204,316.168 7.984 C 316.168 7.764,315.749 7.585,315.236 7.585 C 314.724 7.585,314.180 7.460,314.027 7.307 C 313.874 7.154,313.496 6.992,313.186 6.947 C 312.274 6.813,309.680 5.964,308.323 5.355 C 307.631 5.044,306.682 4.790,306.214 4.790 C 305.746 4.790,304.722 4.522,303.937 4.194 C 303.152 3.866,302.349 3.697,302.153 3.819 C 301.957 3.940,301.796 3.849,301.796 3.616 C 301.796 3.384,301.662 3.228,301.497 3.269 C 301.088 3.372,295.355 2.402,294.611 2.104 C 294.281 1.972,293.518 1.881,292.914 1.902 C 292.310 1.923,291.816 1.765,291.816 1.551 C 291.816 1.338,291.592 1.201,291.317 1.249 C 291.043 1.296,289.830 1.212,288.623 1.063 C 287.415 0.913,285.439 0.701,284.232 0.591 C 280.806 0.278,264.894 -0.124,264.671 0.095 M309.997 56.023 C 326.433 59.287,339.829 72.779,343.355 89.621 C 344.138 93.358,344.068 103.893,343.256 104.705 C 342.902 105.060,342.493 106.143,342.347 107.114 C 341.900 110.096,338.660 118.184,337.667 118.798 C 337.472 118.918,337.416 119.184,337.542 119.389 C 337.668 119.593,337.581 119.760,337.349 119.760 C 337.116 119.760,336.926 120.030,336.926 120.359 C 336.926 120.689,336.747 120.958,336.527 120.958 C 336.307 120.958,336.128 121.228,336.128 121.557 C 336.128 121.886,335.987 122.156,335.815 122.156 C 335.642 122.156,335.158 122.740,334.738 123.453 C 334.099 124.537,329.033 129.748,327.261 131.144 C 324.661 133.191,322.326 134.659,321.151 134.983 C 320.375 135.197,319.845 135.542,319.973 135.750 C 320.102 135.958,319.915 136.128,319.558 136.128 C 319.201 136.128,318.517 136.341,318.038 136.602 C 317.558 136.863,316.896 137.121,316.567 137.175 C 316.238 137.229,314.980 137.639,313.772 138.085 C 312.565 138.531,311.093 138.902,310.503 138.909 C 309.912 138.916,309.332 139.078,309.215 139.268 C 309.097 139.458,308.569 139.531,308.040 139.430 C 307.512 139.329,306.958 139.443,306.810 139.683 C 306.487 140.204,295.808 140.301,295.808 139.782 C 295.808 139.597,295.314 139.479,294.711 139.520 C 294.107 139.562,293.433 139.468,293.214 139.312 C 292.994 139.155,291.600 138.803,290.115 138.529 C 288.630 138.256,287.315 137.870,287.193 137.672 C 287.071 137.474,286.804 137.416,286.599 137.542 C 286.395 137.668,286.228 137.610,286.228 137.412 C 286.228 137.214,285.464 136.824,284.531 136.545 C 283.598 136.266,282.385 135.727,281.836 135.347 C 281.287 134.967,280.267 134.410,279.570 134.110 C 278.872 133.809,278.389 133.422,278.495 133.249 C 278.602 133.076,278.444 132.934,278.143 132.934 C 277.842 132.934,277.210 132.575,276.739 132.136 C 276.267 131.697,275.699 131.337,275.475 131.337 C 275.251 131.337,274.775 130.890,274.417 130.343 C 274.058 129.796,273.650 129.400,273.509 129.464 C 273.369 129.527,272.664 128.987,271.944 128.263 C 271.223 127.539,270.760 126.946,270.914 126.946 C 271.067 126.946,270.399 126.230,269.429 125.355 C 268.459 124.480,267.799 123.761,267.964 123.758 C 268.129 123.755,267.949 123.406,267.565 122.983 C 266.205 121.485,265.919 121.040,266.158 120.801 C 266.292 120.668,266.191 120.559,265.935 120.559 C 265.679 120.559,265.469 120.372,265.469 120.143 C 265.469 119.914,265.130 119.363,264.715 118.917 C 264.300 118.472,263.738 117.312,263.465 116.339 C 263.193 115.367,262.828 114.571,262.655 114.571 C 262.312 114.571,261.295 111.618,260.867 109.381 C 260.720 108.613,260.269 107.715,259.865 107.385 C 257.315 105.307,258.485 88.710,261.681 81.631 C 261.979 80.969,262.406 79.948,262.628 79.363 C 265.493 71.829,277.312 60.808,285.230 58.288 C 286.108 58.009,287.031 57.619,287.281 57.421 C 289.697 55.512,303.230 54.679,309.997 56.023 " stroke="none" fill="#f4c40c" fill-rule="evenodd"></path><path id="path1" d="M297.206 55.741 C 279.997 57.554,265.454 69.841,260.412 86.826 C 259.112 91.203,258.769 103.378,259.860 106.387 L 260.439 107.984 260.715 106.188 C 261.371 101.907,261.516 101.219,261.807 101.015 C 261.976 100.896,262.337 100.039,262.608 99.110 C 262.879 98.181,263.721 96.295,264.478 94.918 C 265.236 93.542,266.225 91.734,266.677 90.902 C 267.554 89.286,267.703 89.093,270.433 86.048 C 271.407 84.962,272.115 83.929,272.007 83.753 C 271.898 83.577,272.064 83.433,272.376 83.433 C 272.889 83.433,274.654 82.036,276.888 79.860 C 277.351 79.410,277.857 79.042,278.014 79.042 C 278.171 79.042,279.083 78.503,280.040 77.844 C 280.997 77.186,281.960 76.647,282.179 76.647 C 282.398 76.647,282.815 76.417,283.105 76.137 C 283.395 75.856,284.711 75.273,286.028 74.841 C 287.345 74.409,288.520 73.925,288.639 73.766 C 288.941 73.362,294.373 72.255,296.058 72.255 C 296.886 72.255,297.352 72.093,297.206 71.856 C 297.047 71.599,298.591 71.457,301.550 71.457 C 304.075 71.457,306.233 71.607,306.347 71.791 C 306.460 71.975,307.182 72.148,307.950 72.177 C 309.647 72.241,314.551 73.349,315.142 73.802 C 315.377 73.982,316.536 74.438,317.719 74.815 C 318.902 75.192,320.127 75.759,320.442 76.074 C 320.757 76.389,321.233 76.647,321.499 76.647 C 323.267 76.647,332.645 84.266,334.766 87.425 C 335.281 88.194,336.335 89.721,337.108 90.818 C 337.880 91.916,338.709 93.400,338.949 94.115 C 339.189 94.831,339.511 95.339,339.663 95.245 C 339.816 95.151,340.285 96.182,340.706 97.537 C 341.127 98.892,341.706 100.354,341.993 100.787 C 342.280 101.221,342.521 102.029,342.528 102.584 C 342.540 103.572,342.553 103.577,343.157 102.794 C 343.932 101.791,343.715 94.488,342.766 89.604 C 338.726 68.812,318.168 53.533,297.206 55.741 M399.079 133.327 C 397.622 155.422,392.236 173.917,381.986 192.016 C 379.503 196.401,371.459 208.011,370.093 209.182 C 369.965 209.291,368.791 210.639,367.485 212.176 C 338.276 246.542,290.368 262.598,244.937 253.245 L 238.176 251.854 232.635 257.364 C 229.587 260.395,226.901 263.234,226.666 263.673 C 226.431 264.112,226.370 264.350,226.529 264.202 C 226.688 264.054,227.544 264.189,228.430 264.501 C 229.316 264.814,230.478 265.070,231.012 265.070 C 231.546 265.070,231.889 265.222,231.775 265.407 C 231.579 265.725,236.329 267.066,237.649 267.066 C 237.983 267.066,238.317 267.233,238.390 267.436 C 238.463 267.640,240.319 268.122,242.515 268.507 C 244.711 268.892,246.597 269.331,246.707 269.482 C 246.942 269.806,257.026 271.058,259.397 271.058 C 260.296 271.058,261.142 271.238,261.277 271.457 C 261.577 271.941,281.836 272.015,281.836 271.532 C 281.836 271.353,282.690 271.172,283.733 271.130 C 286.780 271.006,296.788 269.756,297.006 269.471 C 297.116 269.328,299.047 268.878,301.297 268.471 C 303.548 268.064,305.389 267.614,305.389 267.471 C 305.389 267.329,306.537 266.984,307.940 266.705 C 309.343 266.426,310.923 265.974,311.450 265.701 C 311.977 265.427,313.613 264.877,315.086 264.479 C 316.559 264.080,317.764 263.615,317.764 263.446 C 317.764 263.276,318.348 263.012,319.062 262.859 C 319.775 262.706,320.719 262.383,321.158 262.143 C 321.597 261.902,322.046 261.683,322.156 261.657 C 322.265 261.630,323.164 261.224,324.152 260.753 C 325.140 260.283,326.151 259.894,326.398 259.889 C 326.646 259.884,327.054 259.632,327.305 259.330 C 327.557 259.027,328.276 258.676,328.903 258.551 C 329.530 258.425,330.316 258.050,330.648 257.718 C 330.981 257.385,332.035 256.805,332.992 256.428 C 333.948 256.052,334.850 255.566,334.995 255.350 C 335.243 254.980,337.034 253.970,340.020 252.517 C 340.734 252.170,341.317 251.708,341.317 251.492 C 341.317 251.275,341.511 251.098,341.747 251.098 C 342.315 251.098,347.117 247.730,349.575 245.609 C 350.147 245.115,350.744 244.711,350.901 244.711 C 351.057 244.711,351.805 244.127,352.561 243.413 C 353.318 242.700,354.058 242.068,354.207 242.009 C 355.310 241.572,370.448 226.309,370.407 225.676 C 370.398 225.545,370.571 225.327,370.791 225.191 C 371.151 224.969,372.416 223.423,374.358 220.833 C 374.738 220.325,375.364 219.561,375.749 219.136 C 376.133 218.711,376.449 218.229,376.451 218.064 C 376.454 217.899,377.160 216.875,378.022 215.788 C 378.883 214.700,379.506 213.679,379.406 213.517 C 379.307 213.355,379.475 213.077,379.780 212.899 C 380.085 212.721,380.723 211.856,381.196 210.978 C 382.467 208.620,383.687 206.614,383.988 206.387 C 384.134 206.277,384.605 205.379,385.034 204.391 C 385.463 203.403,386.037 202.362,386.310 202.078 C 386.582 201.794,387.018 200.851,387.278 199.982 C 387.538 199.114,387.902 198.403,388.087 198.403 C 388.272 198.403,388.429 198.179,388.436 197.904 C 388.443 197.630,388.882 196.519,389.412 195.436 C 389.943 194.354,390.269 193.293,390.137 193.079 C 390.005 192.866,390.101 192.817,390.350 192.971 C 390.648 193.155,390.893 192.688,391.066 191.609 C 391.210 190.705,391.550 189.745,391.820 189.475 C 392.091 189.204,392.622 187.914,393.000 186.607 C 393.379 185.301,393.829 184.052,394.001 183.832 C 394.369 183.362,395.609 178.495,395.609 177.519 C 395.609 177.149,395.760 176.846,395.945 176.846 C 396.130 176.846,396.605 175.095,397.000 172.954 C 397.395 170.813,397.843 168.882,397.995 168.663 C 398.302 168.220,399.099 162.510,399.584 157.285 C 399.985 152.962,400.042 135.212,399.667 131.537 L 399.381 128.743 399.079 133.327 M144.340 150.898 C 144.639 162.855,144.901 164.010,146.850 161.936 C 147.554 161.186,147.656 160.803,147.359 160.021 C 147.037 159.174,144.892 148.530,144.354 145.110 C 144.250 144.451,144.244 147.056,144.340 150.898 M75.543 293.918 L 0.389 369.073 0.494 383.811 L 0.599 398.550 82.834 316.239 C 128.064 270.968,165.127 233.758,165.196 233.551 C 165.300 233.240,151.229 218.762,150.824 218.762 C 150.754 218.762,116.878 252.582,75.543 293.918 M150.997 278.744 C 134.695 295.046,121.357 308.520,121.357 308.684 C 121.357 308.848,127.943 308.982,135.991 308.982 L 150.626 308.982 173.117 286.446 C 185.488 274.052,195.609 263.808,195.609 263.683 C 195.609 263.315,181.340 249.102,180.971 249.102 C 180.787 249.102,167.299 262.441,150.997 278.744 M102.094 327.646 C 84.288 345.455,82.973 346.906,84.631 346.906 C 85.113 346.906,85.442 347.183,85.461 347.605 C 85.479 348.022,85.573 348.102,85.694 347.804 C 85.917 347.251,87.026 347.112,87.026 347.638 C 87.026 347.821,88.373 348.306,90.020 348.716 C 91.667 349.126,93.014 349.576,93.014 349.717 C 93.014 349.857,94.002 350.209,95.210 350.499 C 96.699 350.856,97.415 351.230,97.437 351.661 C 97.457 352.073,97.539 352.121,97.670 351.796 C 97.894 351.241,99.002 351.105,99.002 351.633 C 99.002 351.817,99.990 352.205,101.198 352.495 C 102.712 352.858,103.395 353.219,103.399 353.657 C 103.405 354.213,103.455 354.218,103.806 353.693 C 104.154 353.173,104.284 353.195,104.787 353.854 C 105.310 354.539,105.392 354.549,105.621 353.953 C 105.760 353.590,106.045 353.293,106.254 353.293 C 106.463 353.293,106.506 353.501,106.349 353.754 C 106.171 354.042,106.240 354.107,106.532 353.926 C 106.789 353.767,106.912 353.496,106.805 353.324 C 106.699 353.152,107.412 352.176,108.389 351.156 C 110.122 349.348,110.918 348.794,110.339 349.800 C 110.172 350.090,110.204 350.160,110.415 349.967 C 110.615 349.784,110.785 349.514,110.793 349.368 C 110.819 348.878,111.965 347.305,112.295 347.305 C 112.475 347.305,112.494 347.513,112.337 347.766 C 112.159 348.054,112.228 348.119,112.520 347.938 C 112.777 347.779,112.900 347.508,112.793 347.336 C 112.483 346.834,116.135 343.246,116.639 343.557 C 116.905 343.722,116.979 343.658,116.820 343.401 C 116.673 343.161,117.543 341.950,118.755 340.709 L 120.958 338.452 120.958 323.917 C 120.958 315.922,120.823 309.381,120.657 309.381 C 120.491 309.381,112.138 317.601,102.094 327.646 M49.510 380.238 L 30.938 398.800 45.984 398.801 C 55.747 398.802,61.119 398.660,61.281 398.397 C 61.419 398.174,61.679 398.082,61.859 398.193 C 62.038 398.304,62.407 398.127,62.678 397.800 C 62.950 397.473,63.038 397.206,62.874 397.206 C 62.711 397.206,62.799 396.938,63.070 396.611 C 63.342 396.284,63.702 396.103,63.872 396.208 C 64.042 396.313,64.403 396.131,64.674 395.804 C 64.946 395.477,65.034 395.210,64.870 395.210 C 64.707 395.210,64.795 394.942,65.066 394.615 C 65.338 394.288,65.698 394.107,65.868 394.212 C 66.038 394.317,66.399 394.135,66.670 393.808 C 66.942 393.481,67.030 393.214,66.866 393.214 C 66.703 393.214,66.791 392.946,67.062 392.619 C 67.334 392.292,67.694 392.111,67.864 392.216 C 68.034 392.321,68.395 392.139,68.666 391.812 C 68.938 391.485,69.026 391.218,68.862 391.218 C 68.699 391.218,68.787 390.950,69.058 390.623 C 69.330 390.296,69.690 390.115,69.860 390.220 C 70.030 390.325,70.391 390.143,70.662 389.816 C 70.934 389.489,71.022 389.222,70.858 389.222 C 70.695 389.222,70.783 388.954,71.054 388.627 C 71.326 388.300,71.686 388.119,71.856 388.224 C 72.026 388.328,72.387 388.147,72.658 387.820 C 72.930 387.493,73.018 387.226,72.854 387.226 C 72.691 387.226,72.779 386.958,73.050 386.631 C 73.322 386.304,73.682 386.123,73.852 386.228 C 74.177 386.428,74.914 385.709,75.079 385.030 C 75.452 383.504,75.590 383.267,75.993 383.467 C 76.243 383.591,76.133 383.434,75.749 383.119 C 75.364 382.804,75.050 382.263,75.050 381.916 C 75.050 381.569,74.858 381.166,74.623 381.021 C 74.389 380.876,74.293 380.506,74.411 380.199 C 74.529 379.892,74.431 379.641,74.192 379.641 C 73.954 379.641,73.853 379.281,73.968 378.842 C 74.083 378.402,74.014 378.143,73.815 378.267 C 73.616 378.390,73.453 378.200,73.453 377.844 C 73.453 377.459,73.654 377.300,73.952 377.451 C 74.227 377.590,74.137 377.446,73.752 377.131 C 73.368 376.816,73.054 376.264,73.054 375.904 C 73.054 375.544,72.862 375.250,72.628 375.250 C 72.383 375.250,72.310 374.909,72.455 374.451 C 72.611 373.960,72.527 373.653,72.236 373.653 C 71.960 373.653,71.850 373.321,71.972 372.854 C 72.087 372.415,72.018 372.056,71.819 372.056 C 71.620 372.056,71.457 371.866,71.457 371.633 C 71.457 371.401,71.682 371.324,71.956 371.463 C 72.231 371.602,72.156 371.469,71.790 371.167 C 71.424 370.866,70.999 369.954,70.847 369.142 C 70.695 368.329,70.389 367.665,70.168 367.665 C 69.948 367.665,69.861 367.305,69.976 366.866 C 70.091 366.427,70.022 366.068,69.823 366.068 C 69.624 366.068,69.461 365.878,69.461 365.645 C 69.461 365.413,69.686 365.336,69.960 365.475 C 70.235 365.614,70.145 365.470,69.760 365.155 C 69.376 364.840,69.062 364.299,69.062 363.952 C 69.062 363.605,68.890 363.214,68.680 363.085 C 68.470 362.955,68.400 362.585,68.523 362.263 C 69.090 360.785,66.937 362.820,49.510 380.238 " stroke="none" fill="#f49c14" fill-rule="evenodd"></path><path id="path2" d="M304.291 55.764 C 304.676 55.865,305.304 55.865,305.689 55.764 C 306.073 55.664,305.758 55.582,304.990 55.582 C 304.222 55.582,303.907 55.664,304.291 55.764 M290.818 56.687 C 289.801 57.124,290.851 57.124,292.216 56.687 C 293.018 56.430,293.057 56.365,292.415 56.355 C 291.976 56.349,291.257 56.498,290.818 56.687 M285.130 58.479 C 284.416 58.790,283.832 59.133,283.832 59.242 C 283.832 59.434,286.655 58.362,286.993 58.042 C 287.342 57.711,286.375 57.938,285.130 58.479 M320.193 60.011 C 320.871 60.542,323.353 61.901,323.353 61.742 C 323.353 61.483,320.763 59.880,320.345 59.880 C 320.170 59.880,320.101 59.939,320.193 60.011 M327.345 64.396 C 327.345 64.465,327.929 65.049,328.643 65.694 L 329.940 66.866 328.768 65.569 C 327.675 64.359,327.345 64.088,327.345 64.396 M270.647 68.563 L 268.064 71.257 270.758 68.674 C 273.261 66.275,273.636 65.868,273.342 65.868 C 273.281 65.868,272.068 67.081,270.647 68.563 M343.007 91.018 C 343.007 91.786,343.089 92.101,343.189 91.717 C 343.290 91.332,343.290 90.704,343.189 90.319 C 343.089 89.935,343.007 90.250,343.007 91.018 M258.824 98.004 C 258.823 99.980,258.891 100.839,258.974 99.912 C 259.058 98.986,259.059 97.369,258.977 96.319 C 258.894 95.270,258.826 96.028,258.824 98.004 M398.930 132.136 C 398.930 133.563,399.003 134.147,399.091 133.433 C 399.180 132.720,399.180 131.552,399.091 130.838 C 399.003 130.125,398.930 130.709,398.930 132.136 M398.527 137.126 C 398.529 138.443,398.604 138.934,398.693 138.216 C 398.781 137.499,398.780 136.421,398.688 135.821 C 398.597 135.221,398.525 135.808,398.527 137.126 M394.639 160.308 C 394.492 160.893,394.449 161.449,394.543 161.543 C 394.638 161.637,394.835 161.235,394.981 160.650 C 395.128 160.065,395.171 159.509,395.077 159.415 C 394.983 159.321,394.786 159.723,394.639 160.308 M146.385 162.288 C 145.769 162.830,145.423 163.273,145.617 163.273 C 145.810 163.273,146.391 162.824,146.906 162.275 C 148.099 161.005,147.836 161.012,146.385 162.288 M361.065 218.862 L 358.683 221.357 361.178 218.975 C 362.550 217.664,363.673 216.541,363.673 216.480 C 363.673 216.185,363.279 216.545,361.065 218.862 M99.401 269.760 L 48.503 320.758 99.501 269.861 C 146.914 222.542,150.678 218.762,150.399 218.762 C 150.343 218.762,127.394 241.712,99.401 269.760 M347.904 230.175 L 346.707 231.204 348.004 230.345 C 348.718 229.873,349.301 229.409,349.301 229.314 C 349.301 229.015,349.132 229.119,347.904 230.175 M164.864 232.861 C 165.365 233.525,163.538 235.470,143.685 255.416 L 121.957 277.246 143.905 255.396 C 165.258 234.139,165.833 233.528,165.084 232.841 C 164.347 232.165,164.338 232.166,164.864 232.861 M328.443 242.145 C 326.951 242.954,327.042 243.291,328.543 242.515 C 329.202 242.174,329.741 241.810,329.741 241.706 C 329.741 241.449,329.698 241.464,328.443 242.145 M318.962 246.507 C 318.413 246.821,318.144 247.077,318.363 247.077 C 318.583 247.077,319.212 246.821,319.760 246.507 C 320.309 246.193,320.579 245.936,320.359 245.936 C 320.140 245.936,319.511 246.193,318.962 246.507 M150.897 278.543 L 121.158 308.383 151.082 278.643 C 167.540 262.285,181.088 248.857,181.188 248.802 C 181.288 248.748,181.205 248.703,181.004 248.703 C 180.802 248.703,167.254 262.131,150.897 278.543 M232.131 257.585 L 226.148 263.673 232.136 257.829 C 235.429 254.615,238.393 251.889,238.723 251.773 C 239.251 251.585,239.251 251.556,238.718 251.529 C 238.385 251.511,235.421 254.237,232.131 257.585 M263.978 255.775 C 264.584 255.867,265.483 255.865,265.974 255.770 C 266.465 255.675,265.968 255.600,264.870 255.603 C 263.772 255.606,263.371 255.684,263.978 255.775 M276.547 255.771 C 277.041 255.866,277.849 255.866,278.343 255.771 C 278.837 255.676,278.433 255.598,277.445 255.598 C 276.457 255.598,276.053 255.676,276.547 255.771 M173.219 286.302 C 160.795 298.776,150.751 308.982,150.900 308.982 C 151.049 308.982,159.149 300.999,168.899 291.243 C 194.488 265.638,196.187 263.914,195.988 263.760 C 195.889 263.684,185.643 273.827,173.219 286.302 M102.279 327.046 C 84.510 344.781,82.491 346.906,83.419 346.906 C 83.646 346.906,83.832 346.681,83.832 346.406 C 83.832 345.883,120.140 309.381,120.660 309.381 C 120.824 309.381,120.958 315.935,120.958 323.946 L 120.958 338.510 113.174 346.363 C 108.892 350.682,105.389 354.308,105.389 354.420 C 105.389 354.532,105.467 354.549,105.563 354.458 C 105.659 354.366,109.251 350.819,113.547 346.576 L 121.357 338.861 121.357 323.722 C 121.357 315.395,121.227 308.583,121.068 308.583 C 120.909 308.583,112.454 316.891,102.279 327.046 M85.828 347.673 C 85.828 348.106,88.172 348.688,88.518 348.341 C 88.649 348.211,88.367 348.104,87.891 348.104 C 87.415 348.104,87.026 347.924,87.026 347.705 C 87.026 347.485,86.756 347.305,86.427 347.305 C 86.098 347.305,85.828 347.471,85.828 347.673 M90.619 349.207 C 90.619 349.625,94.172 350.672,94.495 350.349 C 94.632 350.212,94.370 350.100,93.912 350.100 C 93.455 350.100,93.021 349.948,92.947 349.762 C 92.770 349.312,90.619 348.799,90.619 349.207 M97.804 351.665 C 97.804 352.098,100.148 352.680,100.494 352.333 C 100.625 352.203,100.343 352.096,99.867 352.096 C 99.391 352.096,99.002 351.916,99.002 351.697 C 99.002 351.477,98.733 351.297,98.403 351.297 C 98.074 351.297,97.804 351.463,97.804 351.665 M49.300 380.140 L 30.938 398.603 49.485 380.240 C 59.686 370.140,68.114 361.831,68.214 361.776 C 68.315 361.722,68.231 361.677,68.029 361.677 C 67.827 361.677,59.399 369.985,49.300 380.140 M0.479 368.543 C -0.096 369.118,-0.222 398.802,0.350 398.802 C 0.543 398.802,0.947 398.488,1.249 398.104 C 1.745 397.471,1.731 397.457,1.098 397.953 C 0.209 398.650,-0.009 369.430,0.878 368.543 C 1.142 368.279,1.267 368.064,1.158 368.064 C 1.048 368.064,0.743 368.279,0.479 368.543 M73.588 378.044 C 73.728 378.593,73.844 379.177,73.847 379.341 C 73.850 379.506,74.038 379.641,74.266 379.641 C 74.530 379.641,74.506 379.318,74.198 378.743 C 73.934 378.249,73.763 377.784,73.818 377.711 C 73.874 377.638,73.788 377.458,73.627 377.312 C 73.467 377.166,73.449 377.495,73.588 378.044 M75.449 383.713 C 75.449 384.003,72.171 387.514,68.164 391.516 L 60.878 398.793 45.709 398.903 L 30.539 399.012 45.712 399.107 L 60.886 399.202 68.611 391.468 C 73.252 386.824,76.160 383.626,75.893 383.461 C 75.649 383.310,75.449 383.423,75.449 383.713 " stroke="none" fill="#f4ac14" fill-rule="evenodd"></path><path id="path3" d="M398.517 133.134 C 398.520 134.232,398.598 134.633,398.690 134.026 C 398.781 133.420,398.779 132.521,398.684 132.030 C 398.589 131.539,398.514 132.036,398.517 133.134 M364.050 215.469 L 362.675 216.966 364.172 215.590 C 365.565 214.310,365.852 213.972,365.547 213.972 C 365.481 213.972,364.807 214.646,364.050 215.469 M150.546 218.463 C 150.646 218.518,153.685 221.437,157.300 224.950 L 163.872 231.337 157.490 224.850 C 153.979 221.282,150.940 218.363,150.737 218.363 C 150.533 218.363,150.447 218.408,150.546 218.463 M357.865 221.657 L 356.287 223.353 357.984 221.775 C 359.562 220.308,359.864 219.960,359.562 219.960 C 359.497 219.960,358.733 220.724,357.865 221.657 M267.565 255.775 C 268.169 255.866,269.157 255.866,269.760 255.775 C 270.364 255.683,269.870 255.609,268.663 255.609 C 267.455 255.609,266.961 255.683,267.565 255.775 M272.754 255.775 C 273.358 255.866,274.346 255.866,274.950 255.775 C 275.554 255.683,275.060 255.609,273.852 255.609 C 272.645 255.609,272.151 255.683,272.754 255.775 " stroke="none" fill="#f4b414" fill-rule="evenodd"></path><path id="path4" d="M298.902 55.385 C 300.274 55.463,302.520 55.463,303.892 55.385 C 305.264 55.307,304.142 55.244,301.397 55.244 C 298.653 55.244,297.530 55.307,298.902 55.385 M287.924 57.098 C 286.587 57.636,286.837 57.908,288.224 57.425 C 288.882 57.196,289.421 56.935,289.421 56.847 C 289.421 56.610,288.935 56.692,287.924 57.098 M272.436 66.367 L 270.858 68.064 272.555 66.486 C 274.133 65.018,274.435 64.671,274.133 64.671 C 274.068 64.671,273.304 65.434,272.436 66.367 M258.384 98.004 C 258.389 98.882,258.470 99.195,258.566 98.698 C 258.661 98.201,258.658 97.483,258.558 97.101 C 258.458 96.719,258.380 97.126,258.384 98.004 M398.699 125.881 C 398.536 126.283,398.425 127.720,398.452 129.075 L 398.501 131.537 398.857 129.142 C 399.273 126.354,399.191 124.665,398.699 125.881 M397.298 145.709 C 397.298 146.477,397.380 146.791,397.481 146.407 C 397.581 146.023,397.581 145.394,397.481 145.010 C 397.380 144.626,397.298 144.940,397.298 145.709 M361.059 218.463 L 359.481 220.160 361.178 218.582 C 362.755 217.114,363.058 216.766,362.756 216.766 C 362.690 216.766,361.927 217.530,361.059 218.463 M117.963 250.798 L 85.629 283.234 118.064 250.899 C 148.216 220.840,150.678 218.363,150.398 218.363 C 150.343 218.363,135.747 232.959,117.963 250.798 M145.108 254.391 L 124.750 274.850 145.210 254.492 C 156.462 243.296,165.669 234.089,165.669 234.033 C 165.669 233.753,164.031 235.374,145.108 254.391 M171.254 257.784 L 161.876 267.265 171.442 257.884 C 176.703 252.725,181.090 248.458,181.189 248.403 C 181.289 248.348,181.204 248.303,181.001 248.303 C 180.798 248.303,176.412 252.570,171.254 257.784 M311.577 248.916 C 310.579 249.397,310.545 249.452,311.377 249.249 C 312.508 248.973,313.780 248.325,313.174 248.334 C 312.954 248.337,312.236 248.599,311.577 248.916 M257.390 254.973 C 257.886 255.068,258.605 255.065,258.987 254.965 C 259.368 254.865,258.962 254.787,258.084 254.791 C 257.206 254.796,256.893 254.877,257.390 254.973 M283.333 254.972 C 283.827 255.067,284.636 255.067,285.130 254.972 C 285.624 254.877,285.220 254.799,284.232 254.799 C 283.244 254.799,282.839 254.877,283.333 254.972 " stroke="none" fill="#f4bc12" fill-rule="evenodd"></path></g></svg>