<?xml version="1.0" standalone="no"?>
<!DOCTYPE svg PUBLIC "-//W3C//DTD SVG 20010904//EN"
 "http://www.w3.org/TR/2001/REC-SVG-20010904/DTD/svg10.dtd">
<svg version="1.0" xmlns="http://www.w3.org/2000/svg"
 width="802.000000pt" height="802.000000pt" viewBox="0 0 802.000000 802.000000"
 preserveAspectRatio="xMidYMid meet">
<metadata>
Created by potrace 1.11, written by Peter Selinger 2001-2013
</metadata>
<g transform="translate(0.000000,802.000000) scale(0.100000,-0.100000)"
fill="#000000" stroke="none">
<path d="M5195 7989 c-599 -60 -1138 -313 -1561 -734 -455 -453 -721 -1053
-750 -1696 -7 -148 10 -606 26 -738 l11 -85 -245 -245 c-136 -136 -246 -251
-246 -256 0 -6 65 -75 145 -155 l145 -145 -1355 -1355 -1355 -1355 0 -605 0
-605 601 -4 602 -3 152 152 153 153 -154 455 c-85 250 -148 452 -141 450 6 -3
211 -72 454 -154 l442 -149 151 150 150 150 0 302 0 303 302 0 303 0 452 452
453 453 150 -150 150 -150 158 156 157 155 110 -37 c255 -86 493 -123 795
-123 240 0 347 11 570 60 415 92 843 316 1151 602 261 242 433 470 585 777
212 428 294 872 251 1360 -9 99 -19 223 -22 275 -39 569 -294 1137 -703 1561
-434 451 -994 721 -1617 779 -125 11 -352 11 -470 -1z m1036 -1424 c267 -54
507 -254 610 -511 43 -106 47 -155 19 -245 -97 -322 -352 -547 -682 -605 -354
-62 -726 124 -892 446 -70 136 -81 181 -66 258 38 192 153 376 310 497 201
155 448 211 701 160z"/>
</g>
</svg>
